<svg width="52" height="52" viewBox="0 0 52 52" fill="none" xmlns="http://www.w3.org/2000/svg">
<circle cx="26" cy="26" r="25" fill="#FCFCFC" stroke="#0039A6" stroke-width="2"/>
<path d="M13.5 22.9992H16.5V30.9992H14.5C14.2348 30.9992 13.9804 31.1045 13.7929 31.2921C13.6054 31.4796 13.5 31.7339 13.5 31.9992C13.5 32.2644 13.6054 32.5187 13.7929 32.7063C13.9804 32.8938 14.2348 32.9992 14.5 32.9992H38.5C38.7652 32.9992 39.0196 32.8938 39.2071 32.7063C39.3946 32.5187 39.5 32.2644 39.5 31.9992C39.5 31.7339 39.3946 31.4796 39.2071 31.2921C39.0196 31.1045 38.7652 30.9992 38.5 30.9992H36.5V22.9992H39.5C39.7173 22.9988 39.9286 22.9276 40.1018 22.7964C40.2751 22.6653 40.4009 22.4812 40.4602 22.2722C40.5196 22.0631 40.5092 21.8404 40.4306 21.6378C40.3521 21.4352 40.2097 21.2636 40.025 21.1492L27.025 13.1492C26.8677 13.0504 26.6857 12.998 26.5 12.998C26.3143 12.998 26.1323 13.0504 25.975 13.1492L12.975 21.1492C12.7903 21.2636 12.6479 21.4352 12.5694 21.6378C12.4908 21.8404 12.4804 22.0631 12.5398 22.2722C12.5991 22.4812 12.7249 22.6653 12.8982 22.7964C13.0714 22.9276 13.2827 22.9988 13.5 22.9992ZM18.5 22.9992H22.5V30.9992H18.5V22.9992ZM28.5 22.9992V30.9992H24.5V22.9992H28.5ZM34.5 30.9992H30.5V22.9992H34.5V30.9992ZM26.5 15.1742L35.9625 20.9992H17.0375L26.5 15.1742ZM41.5 35.9992C41.5 36.2644 41.3946 36.5187 41.2071 36.7063C41.0196 36.8938 40.7652 36.9992 40.5 36.9992H12.5C12.2348 36.9992 11.9804 36.8938 11.7929 36.7063C11.6054 36.5187 11.5 36.2644 11.5 35.9992C11.5 35.7339 11.6054 35.4796 11.7929 35.2921C11.9804 35.1045 12.2348 34.9992 12.5 34.9992H40.5C40.7652 34.9992 41.0196 35.1045 41.2071 35.2921C41.3946 35.4796 41.5 35.7339 41.5 35.9992Z" fill="#0039A6"/>
</svg>
