<svg width="25" height="24" viewBox="0 0 25 24" fill="none" xmlns="http://www.w3.org/2000/svg">
<g clip-path="url(#clip0_664_266)">
<path d="M6.04664 14.4183L5.23971 17.4306L2.29041 17.493C1.40901 15.8582 0.909058 13.9878 0.909058 12.0001C0.909058 10.0781 1.3765 8.26552 2.20507 6.66956H2.2057L4.8314 7.15094L5.98162 9.76089C5.74088 10.4627 5.60967 11.2161 5.60967 12.0001C5.60976 12.851 5.76388 13.6662 6.04664 14.4183Z" fill="#FBBB00"/>
<path d="M23.8883 9.83447C24.0214 10.5356 24.0908 11.2597 24.0908 11.9998C24.0908 12.8296 24.0036 13.6391 23.8374 14.4199C23.2731 17.0769 21.7988 19.397 19.7564 21.0388L19.7558 21.0382L16.4485 20.8694L15.9805 17.9475C17.3357 17.1527 18.3948 15.9089 18.9527 14.4199H12.7548V9.83447H19.0431H23.8883Z" fill="#518EF8"/>
<path d="M19.7553 21.0385L19.7559 21.0391C17.7695 22.6357 15.2462 23.591 12.4995 23.591C8.08537 23.591 4.24765 21.1238 2.28992 17.493L6.04614 14.4183C7.02499 17.0307 9.54506 18.8903 12.4995 18.8903C13.7694 18.8903 14.9591 18.547 15.9799 17.9478L19.7553 21.0385Z" fill="#28B446"/>
<path d="M19.8983 3.07756L16.1433 6.15169C15.0868 5.49128 13.8379 5.10978 12.4999 5.10978C9.47857 5.10978 6.91136 7.05474 5.98155 9.76081L2.20559 6.66948H2.20496C4.13403 2.9502 8.02015 0.409119 12.4999 0.409119C15.3122 0.409119 17.8909 1.41092 19.8983 3.07756Z" fill="#F14336"/>
</g>
<defs>
<clipPath id="clip0_664_266">
<rect width="23.1818" height="23.1818" fill="white" transform="translate(0.909058 0.409119)"/>
</clipPath>
</defs>
</svg>
