<svg width="312" height="233" viewBox="0 0 312 233" fill="none" xmlns="http://www.w3.org/2000/svg">
<path d="M312 204.849H0V205.005H312V204.849Z" fill="#EBEBEB"/>
<path d="M280.738 214.88H260.071V215.036H280.738V214.88Z" fill="#EBEBEB"/>
<path d="M206.681 216.575H201.259V216.731H206.681V216.575Z" fill="#EBEBEB"/>
<path d="M259.447 209.095H247.472V209.251H259.447V209.095Z" fill="#EBEBEB"/>
<path d="M59.6855 210.142H32.735V210.298H59.6855V210.142Z" fill="#EBEBEB"/>
<path d="M69.1953 210.142H65.2454V210.298H69.1953V210.142Z" fill="#EBEBEB"/>
<path d="M140.494 212.772H82.0372V212.928H140.494V212.772Z" fill="#EBEBEB"/>
<path d="M147.888 177.047H27.3998C26.4559 177.046 25.5513 176.67 24.8844 176.003C24.2176 175.335 23.843 174.431 23.843 173.488V4.28705C23.8512 3.34952 24.2294 2.45309 24.8954 1.79247C25.5613 1.13185 26.4613 0.760395 27.3998 0.758789H147.888C148.833 0.758789 149.739 1.1338 150.407 1.80132C151.076 2.46885 151.451 3.3742 151.451 4.31822V173.488C151.451 174.432 151.076 175.337 150.407 176.005C149.739 176.672 148.833 177.047 147.888 177.047ZM27.3998 0.883463C26.4973 0.885115 25.6323 1.24443 24.9947 1.88255C24.3571 2.52067 23.999 3.38544 23.999 4.28705V173.488C23.999 174.39 24.3571 175.254 24.9947 175.892C25.6323 176.531 26.4973 176.89 27.3998 176.892H147.888C148.791 176.89 149.657 176.531 150.295 175.893C150.934 175.255 151.293 174.39 151.295 173.488V4.28705C151.293 3.38487 150.934 2.52011 150.295 1.88217C149.657 1.24423 148.791 0.885111 147.888 0.883463H27.3998Z" fill="#EBEBEB"/>
<path d="M282.865 177.047H162.371C161.427 177.046 160.521 176.67 159.853 176.003C159.186 175.336 158.81 174.431 158.808 173.488V4.28705C158.818 3.34896 159.197 2.45253 159.864 1.79208C160.531 1.13163 161.432 0.760378 162.371 0.758789H282.865C283.803 0.762033 284.701 1.13421 285.366 1.79466C286.03 2.4551 286.408 3.3506 286.416 4.28705V173.488C286.416 174.43 286.042 175.333 285.377 176C284.711 176.668 283.808 177.044 282.865 177.047ZM162.371 0.883463C161.468 0.885111 160.602 1.24423 159.964 1.88217C159.325 2.52011 158.966 3.38487 158.964 4.28705V173.488C158.966 174.39 159.325 175.255 159.964 175.893C160.602 176.531 161.468 176.89 162.371 176.892H282.865C283.769 176.89 284.634 176.531 285.273 175.893C285.911 175.255 286.271 174.39 286.272 173.488V4.28705C286.271 3.38487 285.911 2.52011 285.273 1.88217C284.634 1.24423 283.769 0.885111 282.865 0.883463H162.371Z" fill="#EBEBEB"/>
<path d="M197.521 142.545H272.495C272.494 143.868 271.983 145.14 271.067 146.096C270.151 147.052 268.901 147.617 267.577 147.675C259.522 148.043 247.123 149.315 243.198 153.766C235.866 162.069 236.577 191.23 245.357 197.981C248.102 200.101 256.127 204.302 256.127 204.302H213.888C213.888 204.302 221.376 200.013 223.991 197.981C232.727 191.174 232.97 162.031 225.607 153.766C221.832 149.527 210.213 148.155 202.419 147.725C201.094 147.652 199.848 147.074 198.937 146.11C198.026 145.146 197.519 143.871 197.521 142.545Z" fill="#F5F5F5"/>
<path d="M263.203 147.947C255.59 148.571 246.468 150.06 243.198 153.763C242.13 155.042 241.286 156.492 240.702 158.052H228.128C227.536 156.496 226.693 155.047 225.632 153.763C222.35 150.079 213.152 148.564 205.664 147.947H263.203Z" fill="#E6E6E6"/>
<path d="M229.457 142.583L230.481 130.944H215.698L214.681 142.583H229.457Z" fill="#EBEBEB"/>
<path d="M229.457 142.583L230.481 130.944H231.273L230.256 142.583H229.457Z" fill="#E0E0E0"/>
<path d="M228.053 141.398L228.864 132.129H217.102L216.291 141.398H228.053Z" fill="#F0F0F0"/>
<path d="M227.155 140.632L227.829 132.896H218.007L217.327 140.632H227.155Z" fill="#FAFAFA"/>
<path d="M234.25 142.543H249.095L247.447 123.736H232.602L234.25 142.543Z" fill="#E6E6E6"/>
<path d="M234.25 142.543H233.544L231.897 123.736H232.602L234.25 142.543Z" fill="#E0E0E0"/>
<path d="M235.597 140.63H247.416L246.106 125.656H234.287L235.597 140.63Z" fill="#F0F0F0"/>
<path d="M236.459 139.396H246.336L245.238 126.892H235.367L236.459 139.396Z" fill="#FAFAFA"/>
<path d="M241.451 132.514C241.291 132.674 241.102 132.801 240.893 132.888C240.684 132.975 240.46 133.02 240.234 133.02C240.008 133.02 239.784 132.975 239.575 132.888C239.366 132.801 239.176 132.674 239.017 132.514C238.697 132.192 238.517 131.756 238.517 131.302C238.517 130.847 238.697 130.412 239.017 130.089C239.341 129.769 239.778 129.589 240.234 129.589C240.69 129.589 241.127 129.769 241.451 130.089C241.771 130.412 241.951 130.847 241.951 131.302C241.951 131.756 241.771 132.192 241.451 132.514Z" fill="#EBEBEB"/>
<path d="M240.72 134.622C240.837 134.504 240.975 134.411 241.128 134.347C241.28 134.283 241.444 134.25 241.61 134.25C241.775 134.25 241.939 134.283 242.092 134.347C242.244 134.411 242.383 134.504 242.499 134.622C242.679 134.796 242.803 135.019 242.855 135.264C242.906 135.509 242.882 135.764 242.787 135.995C242.691 136.227 242.528 136.424 242.319 136.562C242.109 136.699 241.863 136.77 241.613 136.766C241.362 136.772 241.115 136.701 240.905 136.564C240.694 136.427 240.53 136.23 240.434 135.998C240.337 135.767 240.313 135.512 240.364 135.266C240.416 135.02 240.54 134.796 240.72 134.622Z" fill="#F0F0F0"/>
<path d="M50.9932 121.105L121 121.105L121 43.7579L50.9932 43.7579L50.9932 121.105Z" fill="#E0E0E0"/>
<path d="M48.7594 121.105L121.368 121.105L121.368 43.7579L48.7594 43.7579L48.7594 121.105Z" fill="#F0F0F0"/>
<path d="M51.8356 117.547L118.416 117.547L118.416 46.2211L51.8356 46.2211L51.8356 117.547Z" fill="white"/>
<path d="M51.8294 117.547H53.7576L53.7576 46.2211H51.8294L51.8294 117.547Z" fill="#E0E0E0"/>
<path d="M53.5516 97.5113V99.4375H118.585V97.5113H53.5516Z" fill="#E0E0E0"/>
<path d="M51.8294 97.5127L119.446 97.5127V94.2836L51.8294 94.2836V97.5127Z" fill="#F0F0F0"/>
<path d="M236.115 56.999C236.115 56.999 236.739 52.8847 233.738 50.2479C230.736 47.611 230.999 46.0402 231.866 45.8344C232.733 45.6287 233.513 48.2718 234.836 48.9949C234.836 48.9949 234.88 45.2547 233.538 43.8521C232.197 42.4496 231.491 38.9026 232.771 38.8652C234.05 38.8278 234.175 40.9846 234.443 42.5306C234.711 44.0766 236.128 46.2708 236.128 46.2708C236.128 46.2708 236.402 42.9046 237.27 41.5207C238.137 40.1369 235.828 36.9702 236.721 35.5863C237.613 34.2024 239.217 36.833 239.061 39.8065C238.905 42.7799 236.951 45.9404 237.413 49.0386C237.413 49.0386 238.287 46.863 239.067 46.6635C239.847 46.4641 240.646 45.0303 241.17 44.4942C241.694 43.9581 242.362 45.8095 241.17 47.5238C239.978 49.238 236.951 53.826 237.426 57.5288L236.115 56.999Z" fill="#E6E6E6"/>
<path d="M234.318 55.1299L233.332 61.295C233.257 61.745 233.282 62.2059 233.405 62.6452C233.528 63.0845 233.746 63.4915 234.043 63.8375C234.341 64.1835 234.711 64.4601 235.127 64.6476C235.543 64.8352 235.996 64.9292 236.452 64.923H237.501C237.957 64.9292 238.41 64.8352 238.826 64.6476C239.242 64.4601 239.612 64.1835 239.91 63.8375C240.207 63.4915 240.425 63.0845 240.548 62.6452C240.671 62.2059 240.696 61.745 240.621 61.295L239.616 55.1299H234.318Z" fill="#F5F5F5"/>
<path d="M249.188 62.6475H179.675V66.2131H249.188V62.6475Z" fill="#E6E6E6"/>
<path d="M185.94 49.4922H182.876V62.6453H185.94V49.4922Z" fill="#F0F0F0"/>
<path d="M200.747 49.4922H197.683V62.6453H200.747V49.4922Z" fill="#F0F0F0"/>
<path d="M217.561 49.1588L214.541 49.6787L216.778 62.6406L219.797 62.1207L217.561 49.1588Z" fill="#F0F0F0"/>
<path d="M189.733 51.2285H186.67V62.6486H189.733V51.2285Z" fill="#F0F0F0"/>
<path d="M196.772 51.2285H193.708V62.6486H196.772V51.2285Z" fill="#F0F0F0"/>
<path d="M214.544 51.2285H211.48V62.6486H214.544V51.2285Z" fill="#F0F0F0"/>
<path d="M204.769 50.8213L201.778 51.4854L204.258 62.6335L207.249 61.9694L204.769 50.8213Z" fill="#F0F0F0"/>
<path d="M192.379 48.8389H190.85V62.6465H192.379V48.8389Z" fill="#F0F0F0"/>
<path d="M210.594 48.8389H209.065V62.6465H210.594V48.8389Z" fill="#F0F0F0"/>
<path d="M179.681 92.8486L249.194 92.8486V89.283L179.681 89.283V92.8486Z" fill="#E6E6E6"/>
<path d="M242.929 89.2832H245.993V76.1301H242.929V89.2832Z" fill="#F0F0F0"/>
<path d="M228.122 89.2832H231.186V76.1301H228.122V89.2832Z" fill="#F0F0F0"/>
<path d="M209.079 88.7516L212.099 89.2715L214.335 76.3096L211.316 75.7896L209.079 88.7516Z" fill="#F0F0F0"/>
<path d="M239.136 89.2832H242.199V77.8631H239.136V89.2832Z" fill="#F0F0F0"/>
<path d="M232.097 89.2832H235.161V77.8631H232.097V89.2832Z" fill="#F0F0F0"/>
<path d="M214.325 89.2832H217.389V77.8631H214.325V89.2832Z" fill="#F0F0F0"/>
<path d="M221.627 88.6045L224.618 89.2686L227.098 78.1204L224.107 77.4564L221.627 88.6045Z" fill="#F0F0F0"/>
<path d="M236.49 89.2832H238.019V75.4756H236.49V89.2832Z" fill="#F0F0F0"/>
<path d="M218.275 89.2832H219.804V75.4756H218.275V89.2832Z" fill="#F0F0F0"/>
<path d="M186.351 89.1641H201.271V78.8722H186.351V89.1641Z" fill="#F5F5F5"/>
<path d="M156 233C222.819 233 276.987 229.84 276.987 225.943C276.987 222.046 222.819 218.887 156 218.887C89.1805 218.887 35.0126 222.046 35.0126 225.943C35.0126 229.84 89.1805 233 156 233Z" fill="#F5F5F5"/>
<path d="M207.461 210.354C207.461 210.354 204.341 203.622 207.898 196.977C211.455 190.331 212.453 188.773 210.207 187.414C207.961 186.055 206.918 192.756 206.918 192.756C205.801 189.742 205.685 186.448 206.588 183.362C208.154 178.556 209.14 170.733 207 169.891C204.859 169.05 206.594 179.653 204.734 183.269C203.788 180.732 203.178 178.084 202.919 175.389C202.663 171.531 203.062 165.366 201.371 163.788C199.68 162.211 198.6 163.296 200.26 171.817C201.258 176.905 201.809 182.069 201.908 187.252C201.908 187.252 198.245 176.081 195.78 175.757C193.315 175.433 193.321 179.048 195.431 182.184C197.54 185.32 201.602 190.942 202.263 193.835C202.263 193.835 198.239 185.432 194.619 188.006C191 190.581 197.771 195.661 200.791 197.494C203.811 199.327 205.908 210.828 205.908 210.828L207.461 210.354Z" fill="#407BFF"/>
<path opacity="0.2" d="M207.461 210.354C207.461 210.354 204.341 203.622 207.898 196.977C211.455 190.331 212.453 188.773 210.207 187.414C207.961 186.055 206.918 192.756 206.918 192.756C205.801 189.742 205.685 186.448 206.588 183.362C208.154 178.556 209.14 170.733 207 169.891C204.859 169.05 206.594 179.653 204.734 183.269C203.788 180.732 203.178 178.084 202.919 175.389C202.663 171.531 203.062 165.366 201.371 163.788C199.68 162.211 198.6 163.296 200.26 171.817C201.258 176.905 201.809 182.069 201.908 187.252C201.908 187.252 198.245 176.081 195.78 175.757C193.315 175.433 193.321 179.048 195.431 182.184C197.54 185.32 201.602 190.942 202.263 193.835C202.263 193.835 198.239 185.432 194.619 188.006C191 190.581 197.771 195.661 200.791 197.494C203.811 199.327 205.908 210.828 205.908 210.828L207.461 210.354Z" fill="black"/>
<path d="M205.021 213.116C205.021 213.116 208.029 206.334 204.397 199.751C200.766 193.168 199.742 191.61 201.976 190.22C204.21 188.83 205.321 195.481 205.321 195.481C206.403 192.452 206.48 189.156 205.539 186.081C203.917 181.306 202.837 173.495 204.971 172.622C207.106 171.749 205.496 182.378 207.393 185.962C208.311 183.412 208.89 180.752 209.115 178.052C209.327 174.193 208.853 168.034 210.525 166.432C212.197 164.83 213.289 165.902 211.729 174.442C210.791 179.543 210.303 184.716 210.269 189.902C210.269 189.902 213.801 178.681 216.26 178.32C218.718 177.958 218.756 181.574 216.684 184.74C214.612 187.907 210.625 193.592 209.988 196.491C209.988 196.491 213.913 188.026 217.564 190.55C221.214 193.075 214.506 198.249 211.511 200.131C208.516 202.014 206.556 213.54 206.556 213.54L205.021 213.116Z" fill="#407BFF"/>
<path d="M218.899 208.284H194.039L196.055 226.056H216.89L218.899 208.284Z" fill="#263238"/>
<path opacity="0.2" d="M267.727 31.5537H136.338C135.483 31.5537 134.79 32.2459 134.79 33.0997V149.682C134.79 150.536 135.483 151.228 136.338 151.228H267.727C268.582 151.228 269.275 150.536 269.275 149.682V33.0997C269.275 32.2459 268.582 31.5537 267.727 31.5537Z" fill="black"/>
<path d="M262.641 29.3398H131.252C130.397 29.3398 129.704 30.032 129.704 30.8858V147.468C129.704 148.322 130.397 149.014 131.252 149.014H262.641C263.496 149.014 264.189 148.322 264.189 147.468V30.8858C264.189 30.032 263.496 29.3398 262.641 29.3398Z" fill="#407BFF"/>
<path opacity="0.6" d="M129.705 40.0312V147.475C129.673 147.844 129.785 148.211 130.017 148.499C130.25 148.787 130.585 148.974 130.953 149.021H262.904C263.278 148.983 263.623 148.8 263.863 148.511C264.103 148.222 264.221 147.85 264.189 147.475V40.0312H129.705Z" fill="white"/>
<path d="M262.592 46.333H131.296V141.253H262.592V46.333Z" fill="white"/>
<path opacity="0.6" d="M259.796 36.7325C260.885 36.7325 261.768 35.6692 261.768 34.3575C261.768 33.0458 260.885 31.9824 259.796 31.9824C258.707 31.9824 257.824 33.0458 257.824 34.3575C257.824 35.6692 258.707 36.7325 259.796 36.7325Z" fill="white"/>
<path opacity="0.6" d="M253.338 36.7325C254.427 36.7325 255.31 35.6692 255.31 34.3575C255.31 33.0458 254.427 31.9824 253.338 31.9824C252.249 31.9824 251.366 33.0458 251.366 34.3575C251.366 35.6692 252.249 36.7325 253.338 36.7325Z" fill="white"/>
<path opacity="0.6" d="M248.845 34.3575C248.845 35.6665 247.965 36.7263 246.873 36.7263C245.781 36.7263 244.908 35.6665 244.908 34.3575C244.908 33.0484 245.787 31.9824 246.873 31.9824C247.959 31.9824 248.845 33.0422 248.845 34.3575Z" fill="white"/>
<path d="M159.27 57.416V81.8957L152.967 89.4883H139.008V57.416H159.27Z" fill="#407BFF"/>
<path opacity="0.7" d="M159.27 57.416V81.8957L152.967 89.4883H139.008V57.416H159.27Z" fill="white"/>
<path opacity="0.3" d="M159.27 81.8965L152.967 89.4891V81.8965H159.27Z" fill="#407BFF"/>
<path opacity="0.3" d="M156.131 62.042H142.153V62.9593H156.131V62.042Z" fill="#407BFF"/>
<path opacity="0.3" d="M156.131 65.5195H142.153V66.4368H156.131V65.5195Z" fill="#407BFF"/>
<path opacity="0.3" d="M156.131 69.0049H142.153V69.9284H156.131V69.0049Z" fill="#407BFF"/>
<path opacity="0.3" d="M156.131 72.4902H142.153V73.4075H156.131V72.4902Z" fill="#407BFF"/>
<path opacity="0.3" d="M152.518 75.9746H142.153V76.8981H152.518V75.9746Z" fill="#407BFF"/>
<path d="M191.406 57.416V81.8957L185.103 89.4883H171.144V57.416H191.406Z" fill="#407BFF"/>
<path opacity="0.7" d="M191.406 57.416V81.8957L185.103 89.4883H171.144V57.416H191.406Z" fill="white"/>
<path opacity="0.3" d="M191.406 81.8965L185.103 89.4891V81.8965H191.406Z" fill="#407BFF"/>
<path opacity="0.3" d="M188.261 62.042H174.283V62.9593H188.261V62.042Z" fill="#407BFF"/>
<path opacity="0.3" d="M188.261 65.5195H174.283V66.4368H188.261V65.5195Z" fill="#407BFF"/>
<path opacity="0.3" d="M188.261 69.0049H174.283V69.9284H188.261V69.0049Z" fill="#407BFF"/>
<path opacity="0.3" d="M188.261 72.4902H174.283V73.4075H188.261V72.4902Z" fill="#407BFF"/>
<path opacity="0.3" d="M184.648 75.9746H174.283V76.8981H184.648V75.9746Z" fill="#407BFF"/>
<path d="M223.542 57.416V81.8957L217.239 89.4883H203.281V57.416H223.542Z" fill="#407BFF"/>
<path opacity="0.7" d="M223.542 57.416V81.8957L217.239 89.4883H203.281V57.416H223.542Z" fill="white"/>
<path opacity="0.3" d="M223.542 81.8965L217.239 89.4891V81.8965H223.542Z" fill="#407BFF"/>
<path opacity="0.3" d="M220.397 62.042H206.419V62.9593H220.397V62.042Z" fill="#407BFF"/>
<path opacity="0.3" d="M220.397 65.5195H206.419V66.4368H220.397V65.5195Z" fill="#407BFF"/>
<path opacity="0.3" d="M220.397 69.0049H206.419V69.9284H220.397V69.0049Z" fill="#407BFF"/>
<path opacity="0.3" d="M220.397 72.4902H206.419V73.4075H220.397V72.4902Z" fill="#407BFF"/>
<path opacity="0.3" d="M216.784 75.9746H206.419V76.8981H216.784V75.9746Z" fill="#407BFF"/>
<path d="M255.678 57.416V81.8957L249.369 89.4883H235.417V57.416H255.678Z" fill="#407BFF"/>
<path opacity="0.7" d="M255.678 57.416V81.8957L249.369 89.4883H235.417V57.416H255.678Z" fill="white"/>
<path opacity="0.3" d="M255.678 81.8965L249.369 89.4891V81.8965H255.678Z" fill="#407BFF"/>
<path opacity="0.3" d="M252.533 62.042H238.555V62.9593H252.533V62.042Z" fill="#407BFF"/>
<path opacity="0.3" d="M252.533 65.5195H238.555V66.4368H252.533V65.5195Z" fill="#407BFF"/>
<path opacity="0.3" d="M252.533 69.0049H238.555V69.9284H252.533V69.0049Z" fill="#407BFF"/>
<path opacity="0.3" d="M252.533 72.4902H238.555V73.4075H252.533V72.4902Z" fill="#407BFF"/>
<path opacity="0.3" d="M248.92 75.9746H238.555V76.8981H248.92V75.9746Z" fill="#407BFF"/>
<path d="M159.27 99.8066V124.286L152.967 131.879H139.008V99.8066H159.27Z" fill="#407BFF"/>
<path opacity="0.7" d="M159.27 99.8066V124.286L152.967 131.879H139.008V99.8066H159.27Z" fill="white"/>
<path opacity="0.3" d="M159.27 124.285L152.967 131.878V124.285H159.27Z" fill="#407BFF"/>
<path opacity="0.3" d="M156.131 104.432H142.153V105.349H156.131V104.432Z" fill="#407BFF"/>
<path opacity="0.3" d="M156.131 107.909H142.153V108.826H156.131V107.909Z" fill="#407BFF"/>
<path opacity="0.3" d="M156.131 111.395H142.153V112.318H156.131V111.395Z" fill="#407BFF"/>
<path opacity="0.3" d="M156.131 114.879H142.153V115.802H156.131V114.879Z" fill="#407BFF"/>
<path opacity="0.3" d="M152.518 118.363H142.153V119.281H152.518V118.363Z" fill="#407BFF"/>
<path d="M191.406 99.8066V124.286L185.103 131.879H171.144V99.8066H191.406Z" fill="#407BFF"/>
<path opacity="0.7" d="M191.406 99.8066V124.286L185.103 131.879H171.144V99.8066H191.406Z" fill="white"/>
<path opacity="0.3" d="M191.406 124.285L185.103 131.878V124.285H191.406Z" fill="#407BFF"/>
<path opacity="0.3" d="M188.261 104.432H174.283V105.349H188.261V104.432Z" fill="#407BFF"/>
<path opacity="0.3" d="M188.261 107.909H174.283V108.826H188.261V107.909Z" fill="#407BFF"/>
<path opacity="0.3" d="M188.261 111.395H174.283V112.318H188.261V111.395Z" fill="#407BFF"/>
<path opacity="0.3" d="M188.261 114.879H174.283V115.802H188.261V114.879Z" fill="#407BFF"/>
<path opacity="0.3" d="M184.648 118.363H174.283V119.281H184.648V118.363Z" fill="#407BFF"/>
<path d="M223.542 99.8066V124.286L217.239 131.879H203.281V99.8066H223.542Z" fill="#407BFF"/>
<path opacity="0.7" d="M223.542 99.8066V124.286L217.239 131.879H203.281V99.8066H223.542Z" fill="white"/>
<path opacity="0.3" d="M223.542 124.285L217.239 131.878V124.285H223.542Z" fill="#407BFF"/>
<path opacity="0.3" d="M220.397 104.432H206.419V105.349H220.397V104.432Z" fill="#407BFF"/>
<path opacity="0.3" d="M220.397 107.909H206.419V108.826H220.397V107.909Z" fill="#407BFF"/>
<path opacity="0.3" d="M220.397 111.395H206.419V112.318H220.397V111.395Z" fill="#407BFF"/>
<path opacity="0.3" d="M220.397 114.879H206.419V115.802H220.397V114.879Z" fill="#407BFF"/>
<path opacity="0.3" d="M216.784 118.363H206.419V119.281H216.784V118.363Z" fill="#407BFF"/>
<path d="M255.678 99.8066V124.286L249.369 131.879H235.417V99.8066H255.678Z" fill="#407BFF"/>
<path opacity="0.7" d="M255.678 99.8066V124.286L249.369 131.879H235.417V99.8066H255.678Z" fill="white"/>
<path opacity="0.3" d="M255.678 124.285L249.369 131.878V124.285H255.678Z" fill="#407BFF"/>
<path opacity="0.3" d="M252.533 104.432H238.555V105.349H252.533V104.432Z" fill="#407BFF"/>
<path opacity="0.3" d="M252.533 107.909H238.555V108.826H252.533V107.909Z" fill="#407BFF"/>
<path opacity="0.3" d="M252.533 111.395H238.555V112.318H252.533V111.395Z" fill="#407BFF"/>
<path opacity="0.3" d="M252.533 114.879H238.555V115.802H252.533V114.879Z" fill="#407BFF"/>
<path opacity="0.3" d="M248.92 118.363H238.555V119.281H248.92V118.363Z" fill="#407BFF"/>
<path opacity="0.1" d="M205.895 79.5215H173.553C172.054 79.5215 170.839 80.7355 170.839 82.2331V106.445C170.839 107.942 172.054 109.156 173.553 109.156H205.895C207.394 109.156 208.609 107.942 208.609 106.445V82.2331C208.609 80.7355 207.394 79.5215 205.895 79.5215Z" fill="black"/>
<g opacity="0.1">
<path d="M203.58 78.1419H199.836V74.0962C199.836 71.5403 198.82 69.089 197.01 67.2817C195.201 65.4743 192.747 64.459 190.189 64.459C187.63 64.459 185.177 65.4743 183.367 67.2817C181.558 69.089 180.542 71.5403 180.542 74.0962V78.1419H176.798V74.0962C176.798 70.5483 178.209 67.1457 180.72 64.6369C183.231 62.1282 186.637 60.7188 190.189 60.7188C193.74 60.7188 197.146 62.1282 199.658 64.6369C202.169 67.1457 203.58 70.5483 203.58 74.0962V78.1419Z" fill="black"/>
</g>
<path d="M190.295 78.2734H157.953C156.454 78.2734 155.239 79.4875 155.239 80.9851V105.197C155.239 106.694 156.454 107.908 157.953 107.908H190.295C191.794 107.908 193.009 106.694 193.009 105.197V80.9851C193.009 79.4875 191.794 78.2734 190.295 78.2734Z" fill="#263238"/>
<path opacity="0.2" d="M183.462 78.2734H157.953C156.454 78.2734 155.239 79.4875 155.239 80.9851V105.197C155.239 106.694 156.454 107.908 157.953 107.908H183.462C184.961 107.908 186.177 106.694 186.177 105.197V80.9851C186.177 79.4875 184.961 78.2734 183.462 78.2734Z" fill="white"/>
<path d="M172.605 89.3942C172.605 87.3496 171.357 85.6914 169.822 85.6914C168.287 85.6914 167.045 87.3496 167.045 89.3942C167.008 90.0681 167.149 90.7399 167.455 91.3418C167.761 91.9437 168.22 92.4545 168.786 92.8227L168.268 100.553H171.388L170.876 92.8227C171.439 92.4521 171.895 91.9405 172.198 91.3389C172.502 90.7373 172.642 90.0668 172.605 89.3942Z" fill="#263238"/>
<path d="M187.98 76.8958H184.236V72.8501C184.236 70.2942 183.22 67.8429 181.41 66.0356C179.601 64.2282 177.147 63.2129 174.589 63.2129C172.03 63.2129 169.577 64.2282 167.767 66.0356C165.958 67.8429 164.942 70.2942 164.942 72.8501V76.8958H161.198V72.8501C161.198 69.3022 162.609 65.8996 165.12 63.3908C167.631 60.8821 171.037 59.4727 174.589 59.4727C178.14 59.4727 181.547 60.8821 184.058 63.3908C186.569 65.8996 187.98 69.3022 187.98 72.8501V76.8958Z" fill="#263238"/>
<g opacity="0.4">
<path d="M187.98 76.8958H184.236V72.8501C184.236 70.2942 183.22 67.8429 181.41 66.0356C179.601 64.2282 177.147 63.2129 174.589 63.2129C172.03 63.2129 169.577 64.2282 167.767 66.0356C165.958 67.8429 164.942 70.2942 164.942 72.8501V76.8958H161.198V72.8501C161.198 69.3022 162.609 65.8996 165.12 63.3908C167.631 60.8821 171.037 59.4727 174.589 59.4727C178.14 59.4727 181.547 60.8821 184.058 63.3908C186.569 65.8996 187.98 69.3022 187.98 72.8501V76.8958Z" fill="white"/>
</g>
<path opacity="0.2" d="M187.98 72.8503V76.896H185.44V72.389C185.44 70.784 185.124 69.1947 184.509 67.712C183.894 66.2292 182.992 64.882 181.856 63.7474C180.719 62.6127 179.37 61.7129 177.886 61.0993C176.401 60.4856 174.81 60.1702 173.204 60.171C170.748 60.1633 168.351 60.9145 166.34 62.3216C168.315 60.7743 170.686 59.8133 173.182 59.5484C175.678 59.2835 178.198 59.7254 180.454 60.8236C182.711 61.9217 184.613 63.6319 185.942 65.7586C187.272 67.8854 187.976 70.3429 187.974 72.8503H187.98Z" fill="white"/>
<path d="M135.071 144.526H119.945V143.946H123.358C123.588 143.944 123.81 143.862 123.985 143.714C124.161 143.566 124.279 143.361 124.319 143.136L125.848 134.047L126.148 132.258H131.327L135.963 143.179C136.026 143.326 136.052 143.487 136.037 143.646C136.023 143.806 135.969 143.959 135.881 144.093C135.792 144.226 135.672 144.336 135.53 144.411C135.389 144.487 135.231 144.526 135.071 144.526Z" fill="#407BFF"/>
<path opacity="0.4" d="M135.071 144.526H119.945V143.946H123.358C123.588 143.944 123.81 143.862 123.985 143.714C124.161 143.566 124.279 143.361 124.319 143.136L125.848 134.047L126.148 132.258H131.327L135.963 143.179C136.026 143.326 136.052 143.487 136.037 143.646C136.023 143.806 135.969 143.959 135.881 144.093C135.792 144.226 135.672 144.336 135.53 144.411C135.389 144.487 135.231 144.526 135.071 144.526Z" fill="white"/>
<path opacity="0.2" d="M135.09 143.945H123.359C123.588 143.943 123.81 143.861 123.985 143.713C124.161 143.565 124.279 143.36 124.319 143.135L125.848 134.046H131.277L135.408 143.465C135.431 143.517 135.44 143.575 135.435 143.632C135.43 143.689 135.411 143.744 135.38 143.791C135.348 143.839 135.305 143.878 135.254 143.905C135.204 143.932 135.147 143.946 135.09 143.945Z" fill="black"/>
<path d="M143.202 135.604H112.944C112.875 135.607 112.807 135.594 112.744 135.566C112.681 135.538 112.625 135.496 112.582 135.442C112.538 135.389 112.508 135.326 112.493 135.259C112.477 135.192 112.478 135.122 112.495 135.056L116.8 112.34C116.832 112.194 116.909 112.062 117.022 111.963C117.134 111.864 117.275 111.804 117.424 111.792H147.676C147.744 111.788 147.813 111.801 147.876 111.829C147.938 111.857 147.994 111.9 148.037 111.953C148.08 112.007 148.11 112.07 148.124 112.137C148.138 112.204 148.137 112.274 148.119 112.34L143.826 135.049C143.795 135.197 143.718 135.33 143.606 135.43C143.493 135.53 143.352 135.591 143.202 135.604Z" fill="#407BFF"/>
<path opacity="0.4" d="M143.202 135.604H112.944C112.875 135.607 112.807 135.594 112.744 135.566C112.681 135.538 112.625 135.496 112.582 135.442C112.538 135.389 112.508 135.326 112.493 135.259C112.477 135.192 112.478 135.122 112.495 135.056L116.8 112.34C116.832 112.194 116.909 112.062 117.022 111.963C117.134 111.864 117.275 111.804 117.424 111.792H147.676C147.744 111.788 147.813 111.801 147.876 111.829C147.938 111.857 147.994 111.9 148.037 111.953C148.08 112.007 148.11 112.07 148.124 112.137C148.138 112.204 148.137 112.274 148.119 112.34L143.826 135.049C143.795 135.197 143.718 135.33 143.606 135.43C143.493 135.53 143.352 135.591 143.202 135.604Z" fill="white"/>
<path d="M142.578 135.604H112.32C112.251 135.607 112.183 135.594 112.12 135.566C112.057 135.538 112.001 135.496 111.958 135.442C111.914 135.389 111.884 135.326 111.868 135.259C111.853 135.192 111.854 135.122 111.871 135.056L116.176 112.34C116.208 112.194 116.285 112.062 116.398 111.963C116.51 111.864 116.651 111.804 116.8 111.792H147.052C147.12 111.788 147.189 111.801 147.252 111.829C147.314 111.857 147.37 111.9 147.413 111.953C147.456 112.007 147.486 112.07 147.5 112.137C147.514 112.204 147.513 112.274 147.495 112.34L143.202 135.049C143.171 135.197 143.094 135.33 142.982 135.43C142.869 135.53 142.728 135.591 142.578 135.604Z" fill="#263238"/>
<path d="M142.178 134.206H113.25L117.231 113.192H146.153L142.178 134.206Z" fill="#407BFF"/>
<path d="M91.7592 144.525V143.814L103.403 141.464H126.185C126.591 141.464 126.98 141.625 127.266 141.911C127.553 142.198 127.714 142.586 127.714 142.991C127.714 143.397 127.553 143.786 127.267 144.073C126.98 144.361 126.591 144.523 126.185 144.525H91.7592Z" fill="#407BFF"/>
<path opacity="0.4" d="M127.714 142.997C127.715 143.401 127.556 143.789 127.271 144.076C126.982 144.362 126.592 144.523 126.185 144.525H91.7592V143.82L103.409 141.464H126.185C126.387 141.464 126.586 141.504 126.772 141.581C126.958 141.658 127.126 141.771 127.268 141.913C127.411 142.056 127.523 142.225 127.599 142.411C127.676 142.597 127.715 142.796 127.714 142.997Z" fill="white"/>
<path opacity="0.4" d="M127.714 142.997C127.715 143.401 127.556 143.789 127.271 144.076C126.982 144.362 126.592 144.523 126.185 144.525H112.351V143.82L124.001 141.464H126.185C126.387 141.464 126.586 141.504 126.772 141.581C126.958 141.658 127.126 141.771 127.269 141.913C127.411 142.056 127.523 142.225 127.6 142.411C127.676 142.597 127.715 142.796 127.714 142.997Z" fill="white"/>
<path d="M136.038 226.056H139.158L144.755 148.172H140.618L136.038 226.056Z" fill="#263238"/>
<path opacity="0.1" d="M136.038 226.055H139.158L144.481 152.036L144.755 148.296H140.618L140.4 152.036L136.038 226.055Z" fill="white"/>
<path opacity="0.2" d="M140.4 151.849H144.481L144.755 148.296H140.618L140.4 151.849Z" fill="black"/>
<path d="M113.169 226.056H116.282L116.794 148.172H112.657L113.169 226.056Z" fill="#263238"/>
<path opacity="0.1" d="M112.657 148.296L112.738 160.863L113.162 226.055H116.282L116.707 160.863L116.788 148.296H112.657Z" fill="white"/>
<path opacity="0.2" d="M112.657 148.296L112.738 161H116.707L116.788 148.296H112.657Z" fill="black"/>
<path d="M80.0779 226.056H83.1916L88.7952 148.172H84.658L80.0779 226.056Z" fill="#263238"/>
<path opacity="0.1" d="M80.0717 226.055H83.1917L88.5206 152.036L88.7952 148.296H84.658L84.4334 152.036L80.0717 226.055Z" fill="white"/>
<path opacity="0.2" d="M84.4334 151.849H88.5206L88.7952 148.296H84.6581L84.4334 151.849Z" fill="black"/>
<path d="M171.694 226.056H174.807L170.227 148.172H166.096L171.694 226.056Z" fill="#263238"/>
<path opacity="0.1" d="M166.096 148.296L166.371 152.036L171.694 226.055H174.807L170.452 152.036L170.227 148.296H166.096Z" fill="white"/>
<path opacity="0.2" d="M170.227 148.296H166.096L166.371 151.849H170.452L170.227 148.296Z" fill="black"/>
<path d="M172.155 150.116H82.7299C82.5529 150.116 82.3776 150.081 82.2141 150.014C82.0506 149.946 81.902 149.847 81.7768 149.722C81.6517 149.597 81.5524 149.448 81.4846 149.285C81.4169 149.122 81.3821 148.947 81.3821 148.77V146.214H173.503V148.77C173.503 148.947 173.468 149.122 173.401 149.285C173.333 149.448 173.234 149.597 173.108 149.722C172.983 149.847 172.835 149.946 172.671 150.014C172.508 150.081 172.332 150.116 172.155 150.116Z" fill="#407BFF"/>
<path opacity="0.4" d="M172.155 150.116H82.7299C82.5529 150.116 82.3776 150.081 82.2141 150.014C82.0506 149.946 81.902 149.847 81.7768 149.722C81.6517 149.597 81.5524 149.448 81.4846 149.285C81.4169 149.122 81.3821 148.947 81.3821 148.77V146.214H173.503V148.77C173.503 148.947 173.468 149.122 173.401 149.285C173.333 149.448 173.234 149.597 173.108 149.722C172.983 149.847 172.835 149.946 172.671 150.014C172.508 150.081 172.332 150.116 172.155 150.116Z" fill="white"/>
<path opacity="0.2" d="M81.3758 148.166H173.503V146.215H81.3758V148.166Z" fill="black"/>
<path d="M79.4476 146.725H175.438C175.729 146.725 176.008 146.609 176.214 146.403C176.42 146.197 176.536 145.918 176.536 145.627C176.536 145.336 176.42 145.057 176.214 144.852C176.008 144.646 175.729 144.53 175.438 144.53H79.4476C79.1563 144.53 78.877 144.646 78.671 144.852C78.4651 145.057 78.3494 145.336 78.3494 145.627C78.3494 145.918 78.4651 146.197 78.671 146.403C78.877 146.609 79.1563 146.725 79.4476 146.725Z" fill="#407BFF"/>
<path opacity="0.4" d="M79.4476 146.725H175.438C175.729 146.725 176.008 146.609 176.214 146.403C176.42 146.197 176.536 145.918 176.536 145.627C176.536 145.336 176.42 145.057 176.214 144.852C176.008 144.646 175.729 144.53 175.438 144.53H79.4476C79.1563 144.53 78.877 144.646 78.671 144.852C78.4651 145.057 78.3494 145.336 78.3494 145.627C78.3494 145.918 78.4651 146.197 78.671 146.403C78.877 146.609 79.1563 146.725 79.4476 146.725Z" fill="white"/>
<path opacity="0.3" d="M118.834 124.968C118.697 124.966 118.562 124.935 118.439 124.876C118.315 124.817 118.206 124.731 118.119 124.626C118.032 124.52 117.97 124.396 117.936 124.264C117.902 124.131 117.898 123.993 117.923 123.858L118.31 121.87C118.365 121.598 118.511 121.354 118.725 121.178C118.939 121.002 119.207 120.905 119.483 120.903H135.707C135.845 120.903 135.981 120.934 136.105 120.993C136.23 121.052 136.339 121.139 136.425 121.246C136.514 121.351 136.577 121.474 136.611 121.607C136.644 121.74 136.647 121.879 136.618 122.013L136.232 124.001C136.179 124.273 136.035 124.517 135.822 124.694C135.609 124.87 135.341 124.967 135.065 124.968H118.834Z" fill="white"/>
<path d="M135.065 124.659H118.841C118.748 124.66 118.657 124.641 118.573 124.603C118.489 124.565 118.414 124.509 118.354 124.439C118.295 124.368 118.251 124.285 118.228 124.196C118.204 124.107 118.2 124.014 118.217 123.923L118.61 121.928C118.648 121.728 118.755 121.548 118.912 121.418C119.069 121.288 119.267 121.217 119.471 121.218H135.695C135.787 121.216 135.879 121.235 135.963 121.273C136.047 121.311 136.122 121.368 136.181 121.438C136.241 121.508 136.284 121.591 136.308 121.68C136.332 121.769 136.336 121.863 136.319 121.953L135.932 123.948C135.893 124.149 135.785 124.33 135.626 124.46C135.468 124.589 135.27 124.66 135.065 124.659Z" fill="white"/>
<path d="M121.585 123.401C121.903 122.947 121.867 122.374 121.506 122.121C121.145 121.868 120.594 122.032 120.276 122.486C119.958 122.94 119.993 123.513 120.354 123.766C120.716 124.018 121.267 123.855 121.585 123.401Z" fill="#263238"/>
<path d="M124.32 122.936C124.275 123.185 124.149 123.413 123.962 123.583C123.775 123.753 123.536 123.857 123.284 123.878C123.172 123.874 123.062 123.845 122.964 123.792C122.865 123.739 122.78 123.664 122.715 123.573C122.651 123.482 122.608 123.377 122.591 123.266C122.574 123.156 122.582 123.043 122.616 122.936C122.662 122.688 122.788 122.461 122.975 122.291C123.162 122.121 123.4 122.017 123.652 121.995C123.764 121.997 123.874 122.026 123.974 122.078C124.073 122.131 124.159 122.206 124.224 122.297C124.288 122.389 124.331 122.494 124.348 122.605C124.364 122.716 124.355 122.83 124.32 122.936Z" fill="#263238"/>
<path d="M126.859 122.936C126.814 123.185 126.688 123.412 126.5 123.582C126.313 123.752 126.075 123.856 125.823 123.878C125.711 123.875 125.601 123.847 125.501 123.794C125.402 123.742 125.316 123.667 125.251 123.575C125.185 123.484 125.142 123.379 125.125 123.268C125.107 123.157 125.115 123.043 125.149 122.936C125.196 122.687 125.323 122.46 125.512 122.29C125.7 122.12 125.939 122.017 126.191 121.995C126.303 121.999 126.413 122.028 126.511 122.081C126.61 122.134 126.695 122.209 126.76 122.3C126.824 122.391 126.867 122.496 126.884 122.606C126.902 122.717 126.893 122.83 126.859 122.936Z" fill="#263238"/>
<path d="M129.199 123.396C129.517 122.942 129.482 122.369 129.12 122.116C128.759 121.864 128.208 122.027 127.89 122.481C127.572 122.936 127.607 123.508 127.969 123.761C128.33 124.014 128.881 123.85 129.199 123.396Z" fill="#263238"/>
<path d="M131.932 122.936C131.885 123.186 131.758 123.412 131.57 123.582C131.382 123.752 131.143 123.856 130.89 123.878C130.778 123.874 130.669 123.845 130.57 123.792C130.472 123.739 130.387 123.664 130.322 123.573C130.257 123.482 130.215 123.377 130.197 123.266C130.18 123.156 130.189 123.043 130.223 122.936C130.269 122.688 130.395 122.462 130.582 122.292C130.769 122.122 131.007 122.018 131.258 121.995C131.371 121.998 131.481 122.026 131.58 122.079C131.68 122.131 131.766 122.206 131.831 122.297C131.896 122.389 131.94 122.494 131.957 122.605C131.975 122.716 131.966 122.829 131.932 122.936Z" fill="#263238"/>
<path d="M134.268 123.407C134.586 122.952 134.551 122.38 134.19 122.127C133.828 121.874 133.277 122.038 132.959 122.492C132.641 122.946 132.677 123.519 133.038 123.772C133.4 124.024 133.95 123.861 134.268 123.407Z" fill="#263238"/>
<path opacity="0.3" d="M137.33 124.969C137.225 124.971 137.121 124.948 137.026 124.904C136.931 124.86 136.847 124.795 136.781 124.714C136.71 124.628 136.66 124.527 136.635 124.419C136.61 124.311 136.611 124.198 136.637 124.09L137.13 121.597C137.174 121.393 137.285 121.209 137.445 121.076C137.606 120.942 137.807 120.867 138.016 120.861H140.512C140.617 120.86 140.721 120.882 140.816 120.927C140.911 120.971 140.995 121.036 141.061 121.117C141.132 121.202 141.182 121.303 141.207 121.412C141.232 121.52 141.231 121.632 141.205 121.74L140.712 124.234C140.669 124.438 140.557 124.622 140.397 124.755C140.236 124.889 140.035 124.964 139.826 124.969H137.33Z" fill="white"/>
<path d="M137.33 124.657H139.826C139.96 124.65 140.088 124.6 140.191 124.515C140.295 124.43 140.368 124.313 140.4 124.183L140.893 121.69C140.909 121.631 140.91 121.57 140.898 121.511C140.886 121.452 140.86 121.396 140.822 121.349C140.784 121.302 140.736 121.264 140.681 121.239C140.627 121.213 140.566 121.201 140.506 121.203H138.01C137.873 121.21 137.742 121.261 137.638 121.348C137.533 121.436 137.46 121.556 137.43 121.69L136.937 124.183C136.923 124.241 136.923 124.301 136.937 124.359C136.951 124.417 136.978 124.471 137.016 124.517C137.054 124.563 137.102 124.6 137.156 124.624C137.211 124.648 137.27 124.659 137.33 124.657Z" fill="#263238"/>
<path d="M138.597 124.027C138.578 124.028 138.559 124.024 138.542 124.017C138.524 124.009 138.509 123.998 138.497 123.983C138.474 123.947 138.467 123.904 138.475 123.863C138.483 123.821 138.506 123.784 138.54 123.759L139.533 122.936L138.871 122.113C138.847 122.078 138.839 122.034 138.847 121.992C138.855 121.95 138.879 121.913 138.915 121.889C138.945 121.862 138.984 121.847 139.024 121.847C139.064 121.847 139.103 121.862 139.133 121.889L139.882 122.824C139.906 122.86 139.915 122.903 139.907 122.945C139.898 122.987 139.874 123.024 139.838 123.048L138.721 123.983C138.686 124.012 138.642 124.028 138.597 124.027Z" fill="#407BFF"/>
<path d="M139.72 123.093H138.035C138.016 123.094 137.996 123.09 137.979 123.082C137.961 123.074 137.946 123.062 137.934 123.047C137.921 123.031 137.913 123.014 137.909 122.995C137.905 122.976 137.905 122.956 137.91 122.937C137.92 122.894 137.943 122.856 137.977 122.827C138.011 122.799 138.053 122.783 138.097 122.781H139.776C139.795 122.781 139.815 122.785 139.832 122.793C139.85 122.801 139.865 122.813 139.877 122.828C139.889 122.843 139.898 122.861 139.902 122.88C139.906 122.899 139.906 122.919 139.901 122.937C139.891 122.979 139.869 123.017 139.836 123.045C139.804 123.073 139.763 123.09 139.72 123.093Z" fill="#407BFF"/>
<path d="M85.0326 85.0371H98.486C99.9059 85.0371 101.057 83.8873 101.057 82.4688V69.029C101.057 67.6106 99.9059 66.4607 98.486 66.4607H85.0326C83.6127 66.4607 82.4617 67.6106 82.4617 69.029V82.4688C82.4617 83.8873 83.6127 85.0371 85.0326 85.0371Z" fill="#407BFF"/>
<path d="M90.3053 84.3389L91.7592 90.585L93.2131 84.3389H90.3053Z" fill="#407BFF"/>
<path opacity="0.3" d="M91.597 81.3159C90.0145 80.3735 88.6933 79.0505 87.7538 77.4673C86.8142 75.8842 86.2863 74.0913 86.2181 72.2521V72.0526L91.753 69.6963L97.2816 72.0526V72.2521C97.2174 74.0915 96.6918 75.8853 95.7531 77.4689C94.8144 79.0526 93.4926 80.3754 91.909 81.3159L91.7467 81.4156L91.597 81.3159Z" fill="white"/>
<path opacity="0.6" d="M91.7592 70.04L96.9821 72.2592C96.9251 74.0465 96.4162 75.7902 95.503 77.3281C94.5898 78.8661 93.3019 80.1481 91.7592 81.055V70.04Z" fill="white"/>
<path opacity="0.4" d="M91.7592 70.04L86.5301 72.2592C86.5878 74.0471 87.0975 75.7912 88.0119 77.3292C88.9262 78.8671 90.2154 80.1489 91.7592 81.055V70.04Z" fill="white"/>
<path d="M86.736 140.461L91.104 141.115C92.0957 140.8 93.1154 140.581 94.1491 140.461C95.2704 140.369 96.3974 140.369 97.5187 140.461C97.5187 140.461 99.4968 141.203 99.4968 143.091C99.4968 143.091 94.8854 144.338 93.1195 143.584L86.736 143.091V140.461Z" fill="#E4897B"/>
<path opacity="0.2" d="M86.736 140.461L91.104 141.115C92.0957 140.8 93.1154 140.581 94.1491 140.461C95.2704 140.369 96.3974 140.369 97.5187 140.461C97.5187 140.461 99.4968 141.203 99.4968 143.091C99.4968 143.091 94.8854 144.338 93.1195 143.584L86.736 143.091V140.461Z" fill="black"/>
<path d="M97.5561 110.994C97.6241 111.891 97.8001 112.776 98.0803 113.631C97.8513 113.772 97.5878 113.846 97.319 113.846C97.0502 113.846 96.7867 113.772 96.5577 113.631L97.5561 110.994Z" fill="#AA473D"/>
<path d="M99.2597 109.747C99.0912 110.153 98.7917 110.414 98.5857 110.327C98.3798 110.24 98.3611 109.853 98.5233 109.448C98.6856 109.043 98.9913 108.787 99.1973 108.868C99.4032 108.95 99.4219 109.348 99.2597 109.747Z" fill="#263238"/>
<path d="M100.283 108.352C100.246 108.363 100.207 108.363 100.171 108.352C99.839 108.157 99.4678 108.039 99.0844 108.007C98.701 107.974 98.3152 108.029 97.9555 108.165C97.9017 108.192 97.8393 108.197 97.782 108.178C97.7246 108.16 97.6771 108.119 97.6498 108.065C97.6225 108.011 97.6176 107.949 97.6364 107.892C97.6551 107.834 97.6958 107.787 97.7496 107.759C98.1772 107.585 98.6396 107.513 99.0999 107.549C99.5603 107.585 100.006 107.727 100.402 107.965C100.427 107.981 100.45 108.001 100.467 108.025C100.485 108.049 100.498 108.077 100.505 108.106C100.512 108.135 100.513 108.165 100.508 108.194C100.503 108.224 100.492 108.252 100.476 108.277C100.453 108.305 100.423 108.327 100.39 108.34C100.356 108.353 100.319 108.357 100.283 108.352Z" fill="#263238"/>
<path d="M96.3393 114.385C96.1958 114.56 96.0523 114.728 95.8963 114.884C95.0225 115.791 93.8928 116.411 92.6577 116.661C92.3448 116.724 92.0279 116.766 91.7093 116.785C90.8701 116.838 90.0297 116.703 89.2493 116.39C88.4689 116.077 87.7681 115.595 87.1977 114.977C86.683 114.419 86.288 113.761 86.0371 113.045C84.9201 110.053 86.0371 107.696 87.6533 103.551C88.0126 102.579 88.6143 101.715 89.4015 101.041C90.1887 100.367 91.1352 99.9041 92.1513 99.6975C93.1675 99.4908 94.2196 99.5468 95.2081 99.8601C96.1965 100.173 97.0885 100.734 97.7995 101.488C101.032 104.891 98.8603 111.144 96.3393 114.385Z" fill="#E4897B"/>
<path opacity="0.2" d="M92.6578 116.66C92.3449 116.723 92.0279 116.765 91.7093 116.784C90.8701 116.837 90.0297 116.702 89.2493 116.389C88.4689 116.076 87.7681 115.594 87.1978 114.977C87.5987 114.574 88.0495 114.224 88.5394 113.936C90.1459 114.429 91.5759 115.375 92.6578 116.66Z" fill="black"/>
<path d="M79.2043 116.815C79.6161 119.733 86.0059 120.824 86.0059 120.824C86.0059 120.824 89.1259 122.257 89.2881 121.011C87.984 119.502 87.8404 118.187 88.2897 117.033C88.5878 116.33 89.025 115.694 89.5752 115.163C89.8684 114.859 90.1788 114.572 90.5049 114.303L88.5518 106.312C87.1478 109.366 82.368 116.379 79.2043 116.815Z" fill="#E4897B"/>
<path d="M97.4375 99.2496C97.4375 99.2496 98.8041 99.0813 99.8524 101.625C100.732 103.763 98.6543 104.23 98.7479 106.506C98.8415 108.781 96.7511 110.046 96.7511 110.046C96.7511 110.046 95.0039 111.555 93.5126 110.738C93.5126 110.738 91.5657 111.692 91.054 113.356C90.5423 115.021 87.5284 112.016 84.814 112.471C84.814 112.471 82.9794 110.757 83.1167 106.593C83.2205 104.785 83.6651 103.012 84.4271 101.369C84.787 100.499 85.3166 99.7092 85.9851 99.0456C86.6536 98.3821 87.4476 97.8581 88.3209 97.5042C91.4222 96.0954 96.8572 97.1427 97.4375 99.2496Z" fill="#263238"/>
<path d="M93.1382 109.485C93.0439 109.9 93.0431 110.331 93.1359 110.746C93.2288 111.161 93.4128 111.55 93.6749 111.885C94.3363 112.608 95.4033 111.692 95.8339 110.427C96.2083 109.298 96.3393 107.534 95.3659 107.31C94.3925 107.085 93.3441 108.27 93.1382 109.485Z" fill="#E4897B"/>
<path d="M93.8246 119.229C92.9302 121.723 92.1315 124.112 91.4285 126.398C90.9792 127.819 90.5673 129.209 90.1805 130.549C89.8643 131.676 89.5689 132.769 89.2944 133.828C89.1633 134.34 89.0323 134.844 88.9075 135.343C88.2211 138.092 87.6595 140.598 87.2289 142.824C86.5017 146.298 85.9622 149.808 85.6128 153.34L61.152 150.26C62.0006 146.059 62.6621 142.387 63.5856 138.416C64.0973 136.247 64.6776 133.99 65.4576 131.516C65.9817 129.739 66.5933 127.85 67.3296 125.799C69.7881 118.755 72.0533 116.804 72.0533 116.804C81.407 115.308 93.8246 119.229 93.8246 119.229Z" fill="#263238"/>
<path d="M101.968 140.914L106.336 141.568C107.328 141.253 108.347 141.034 109.381 140.914C110.504 140.822 111.633 140.822 112.757 140.914C112.757 140.914 114.729 141.656 114.729 143.544C114.729 143.544 110.123 144.791 108.351 144.037L101.974 143.544L101.968 140.914Z" fill="#E4897B"/>
<path d="M74.9299 221.499L79.4914 221.58L81.7627 211.076L77.2075 210.995L74.9299 221.499Z" fill="#EBB376"/>
<path opacity="0.2" d="M77.2075 210.995L81.7627 211.082L80.4648 217.085L75.9532 216.786L77.2075 210.995Z" fill="black"/>
<path d="M89.5877 195.778C87.8496 202.462 85.6286 209.013 82.9421 215.376L74.6242 214.753C74.6242 214.753 78.0375 201.432 79.273 189.226C80.0405 181.696 79.9719 175.462 77.7629 174.982C76.3776 174.677 73.1266 174.683 68.9583 174.783V159.261C80.6458 161.661 92.2771 166.18 93.1632 169.808C94.3987 174.914 92.2397 185.723 89.5877 195.778Z" fill="#407BFF"/>
<path d="M73.738 215.128L83.6472 215.788L85.1073 211.506L74.1873 211.001L73.738 215.128Z" fill="#407BFF"/>
<path opacity="0.2" d="M73.738 215.128L83.6472 215.788L85.1073 211.506L74.1873 211.001L73.738 215.128Z" fill="white"/>
<path d="M80.1778 221.356H80.2714C80.2714 221.356 80.3774 221.387 80.3899 221.399C80.4024 221.412 80.3899 221.399 80.3899 221.399H80.4274C80.8127 221.521 81.2103 221.601 81.6129 221.636C81.913 221.692 82.223 221.632 82.4803 221.468C82.5619 221.397 82.6213 221.304 82.6512 221.2C82.6811 221.096 82.6802 220.986 82.6488 220.882C82.6388 220.814 82.6126 220.75 82.5724 220.695C82.5322 220.639 82.4792 220.595 82.4179 220.564C81.987 220.495 81.5456 220.579 81.1699 220.801C81.4384 220.518 81.5976 220.149 81.6192 219.76C81.6008 219.668 81.5533 219.584 81.4836 219.521C81.4139 219.459 81.3258 219.42 81.2323 219.411C81.0549 219.385 80.8741 219.427 80.7269 219.529C80.2464 219.941 80.1715 221.231 80.1715 221.306L80.1778 221.356ZM80.6707 221.094L80.5771 221.144C80.5476 220.651 80.6813 220.163 80.9578 219.754C80.9878 219.724 81.024 219.7 81.0638 219.685C81.1036 219.67 81.1462 219.664 81.1886 219.666H81.2448C81.3945 219.666 81.4258 219.766 81.432 219.829C81.3357 220.327 81.066 220.775 80.6707 221.094ZM80.7331 221.318C81.2822 221.013 82.0622 220.695 82.3555 220.813C82.3847 220.829 82.4096 220.851 82.4281 220.878C82.4466 220.905 82.4581 220.937 82.4616 220.969C82.48 221.035 82.4804 221.104 82.4629 221.17C82.4453 221.236 82.4104 221.296 82.3618 221.343C82.1371 221.543 81.5381 221.53 80.7331 221.318Z" fill="#407BFF"/>
<path d="M80.0716 220.806L74.9611 220.488C74.8759 220.479 74.7907 220.505 74.7241 220.558C74.6575 220.612 74.6148 220.69 74.6054 220.775L74.1062 224.796C74.0924 225.007 74.1627 225.215 74.3017 225.375C74.4408 225.535 74.6373 225.634 74.8487 225.65C76.6334 225.731 77.4883 225.681 79.7347 225.805C81.7286 226.01 83.7347 226.073 85.7375 225.992C87.6095 225.812 87.4036 223.935 86.5862 223.848C84.6331 223.624 82.0559 222.196 80.8329 221.111C80.6209 220.927 80.3526 220.819 80.0716 220.806Z" fill="#263238"/>
<path opacity="0.2" d="M89.5877 195.778C86.4677 193.814 82.8423 191.501 79.273 189.214C80.0405 181.683 79.9719 175.45 77.7629 174.97C76.3776 174.664 73.1266 174.67 68.9583 174.77V159.261C80.6458 161.661 92.2771 166.18 93.1632 169.808C94.3987 174.914 92.2397 185.723 89.5877 195.778Z" fill="black"/>
<path d="M101.593 221.499L106.155 221.58L108.426 211.076L103.871 210.995L101.593 221.499Z" fill="#EBB376"/>
<path opacity="0.2" d="M103.871 210.995L108.426 211.082L107.128 217.085L102.617 216.786L103.871 210.995Z" fill="black"/>
<path d="M85.0324 157.739L85.7687 151.855L61.9507 147.934C61.9507 147.934 54.1569 163.356 57.9695 170.936C61.4702 177.868 98.698 173.735 104.426 174.988C110.155 176.241 101.306 214.765 101.306 214.765L109.631 215.388C109.631 215.388 122.485 180.729 119.845 169.826C118.672 165.058 99.0475 158.755 85.0324 157.739Z" fill="#407BFF"/>
<path d="M100.402 215.128L110.311 215.788L111.771 211.506L100.851 211.001L100.402 215.128Z" fill="#407BFF"/>
<path opacity="0.2" d="M100.402 215.128L110.311 215.788L111.771 211.506L100.851 211.001L100.402 215.128Z" fill="white"/>
<path d="M106.841 221.356H106.935C106.935 221.356 107.041 221.387 107.053 221.399C107.066 221.412 107.053 221.399 107.053 221.399H107.091C107.476 221.521 107.874 221.601 108.276 221.636C108.576 221.692 108.886 221.632 109.144 221.468C109.225 221.397 109.285 221.304 109.315 221.2C109.345 221.096 109.344 220.986 109.312 220.882C109.302 220.814 109.276 220.75 109.236 220.695C109.196 220.639 109.143 220.595 109.081 220.564C108.65 220.495 108.209 220.579 107.833 220.801C108.102 220.518 108.261 220.149 108.283 219.76C108.264 219.668 108.217 219.584 108.147 219.521C108.077 219.459 107.989 219.42 107.896 219.411C107.718 219.385 107.538 219.427 107.39 219.529C106.91 219.941 106.835 221.231 106.835 221.306L106.841 221.356ZM107.334 221.094L107.241 221.144C107.211 220.651 107.345 220.163 107.621 219.754C107.651 219.724 107.687 219.7 107.727 219.685C107.767 219.67 107.81 219.664 107.852 219.666H107.908C108.058 219.666 108.089 219.766 108.095 219.829C108 220.329 107.728 220.778 107.328 221.094H107.334ZM107.397 221.318C107.946 221.013 108.726 220.695 109.019 220.813C109.048 220.829 109.073 220.851 109.092 220.878C109.11 220.905 109.122 220.937 109.125 220.969C109.143 221.035 109.144 221.104 109.126 221.17C109.109 221.236 109.074 221.296 109.025 221.343C108.801 221.543 108.202 221.53 107.397 221.318Z" fill="#407BFF"/>
<path d="M106.735 220.806L101.625 220.488C101.539 220.479 101.454 220.505 101.388 220.558C101.321 220.612 101.278 220.69 101.269 220.775L100.77 224.796C100.756 225.007 100.826 225.215 100.965 225.375C101.104 225.535 101.301 225.634 101.512 225.65C103.297 225.731 104.152 225.681 106.398 225.805C108.392 226.01 110.398 226.073 112.401 225.992C114.304 225.812 114.073 223.935 113.25 223.848C111.297 223.624 108.72 222.196 107.496 221.111C107.284 220.927 107.016 220.819 106.735 220.806Z" fill="#263238"/>
<path d="M61.0771 150.615L72.1094 152.061L72.4713 150.434L61.414 148.826L61.0771 150.615Z" fill="black"/>
<path d="M73.3886 150.445L73.2513 152.06L83.4537 153.462V151.86L73.3886 150.445Z" fill="black"/>
<path d="M84.084 151.955V153.464L85.5691 153.657V152.198L84.084 151.955Z" fill="black"/>
<path opacity="0.2" d="M91.4285 126.398C90.9792 127.819 90.5674 129.209 90.1805 130.55C89.8643 131.676 89.569 132.769 89.2944 133.829C88.5269 129.652 89.9184 124.665 89.9184 124.665L91.4285 126.398Z" fill="black"/>
<path d="M93.8246 119.198C95.8152 119.603 96.4704 135.057 96.5577 136.702C96.6451 138.348 106.33 141.546 106.33 141.546V143.796C106.33 143.796 95.9462 143.073 93.5189 142.082C91.0915 141.091 90.48 126.778 90.48 126.778L93.8246 119.198Z" fill="#E4897B"/>
<path d="M93.8246 119.198C95.6529 119.766 96.5577 129.958 96.5577 129.958L90.9043 132.289L89.5003 126.623C89.5003 126.623 89.1009 125.469 89.8872 123.038C91.0291 119.491 93.8246 119.198 93.8246 119.198Z" fill="#263238"/>
<path d="M51.6547 170.016H96.72C98.0291 170.016 99.2845 170.535 100.21 171.46C101.136 172.385 101.656 173.639 101.656 174.946V177.583H46.7189V174.946C46.7189 173.639 47.2389 172.385 48.1645 171.46C49.0902 170.535 50.3456 170.016 51.6547 170.016Z" fill="#407BFF"/>
<path d="M66.3125 151.27H96.5703C96.9349 151.269 97.2949 151.352 97.6234 151.51C97.9518 151.668 98.2402 151.899 98.467 152.184C98.6937 152.469 98.8531 152.802 98.9331 153.158C99.0131 153.513 99.0117 153.882 98.929 154.237L93.5189 177.582H92.2709L96.876 157.123C96.9567 156.769 96.9565 156.402 96.8755 156.048C96.7945 155.695 96.6347 155.364 96.408 155.081C96.1813 154.797 95.8936 154.569 95.5663 154.412C95.2389 154.255 94.8804 154.174 94.5173 154.174H66.9303L66.3125 151.27Z" fill="#263238"/>
<path d="M77.7691 178.417V198.147C77.7691 198.451 77.6481 198.743 77.4328 198.958C77.2175 199.173 76.9254 199.294 76.6209 199.294H71.76C71.4555 199.294 71.1634 199.173 70.9481 198.958C70.7328 198.743 70.6118 198.451 70.6118 198.147V178.417H77.7691Z" fill="#263238"/>
<path d="M51.0369 223.961C51.0369 223.546 50.9139 223.142 50.6836 222.797C50.4532 222.453 50.1257 222.184 49.7426 222.026C49.3595 221.867 48.9379 221.826 48.5312 221.906C48.1245 221.987 47.7509 222.187 47.4577 222.48C47.1645 222.773 46.9648 223.146 46.8839 223.552C46.803 223.958 46.8445 224.38 47.0032 224.762C47.1619 225.145 47.4306 225.472 47.7754 225.702C48.1202 225.932 48.5256 226.055 48.9403 226.055C49.4963 226.055 50.0296 225.835 50.4228 225.442C50.816 225.049 51.0369 224.516 51.0369 223.961Z" fill="#263238"/>
<path opacity="0.2" d="M49.9886 223.961C49.9886 223.754 49.9271 223.552 49.8119 223.379C49.6967 223.207 49.533 223.073 49.3415 222.994C49.1499 222.915 48.9391 222.894 48.7358 222.934C48.5324 222.975 48.3456 223.074 48.199 223.221C48.0524 223.367 47.9526 223.554 47.9121 223.757C47.8717 223.96 47.8924 224.171 47.9718 224.362C48.0511 224.553 48.1855 224.717 48.3579 224.832C48.5303 224.947 48.733 225.009 48.9403 225.009C49.2178 225.007 49.4835 224.896 49.6798 224.7C49.876 224.504 49.987 224.239 49.9886 223.961Z" fill="white"/>
<path d="M101.55 223.961C101.551 223.545 101.429 223.138 101.198 222.792C100.967 222.446 100.639 222.175 100.254 222.016C99.87 221.856 99.4467 221.814 99.0382 221.895C98.6297 221.975 98.2544 222.176 97.9599 222.47C97.6654 222.764 97.465 223.139 97.3841 223.547C97.3032 223.955 97.3453 224.378 97.5053 224.762C97.6652 225.146 97.9357 225.474 98.2825 225.705C98.6292 225.935 99.0367 226.057 99.4531 226.056C100.009 226.054 100.541 225.833 100.934 225.441C101.327 225.048 101.548 224.516 101.55 223.961Z" fill="#263238"/>
<path opacity="0.2" d="M100.501 223.961C100.501 223.754 100.44 223.552 100.325 223.379C100.21 223.207 100.046 223.073 99.8543 222.994C99.6627 222.915 99.4519 222.894 99.2486 222.934C99.0452 222.975 98.8584 223.074 98.7118 223.221C98.5652 223.367 98.4654 223.554 98.4249 223.757C98.3845 223.96 98.4052 224.171 98.4846 224.362C98.5639 224.553 98.6983 224.717 98.8707 224.832C99.0431 224.947 99.2458 225.009 99.4531 225.009C99.7306 225.007 99.9963 224.896 100.193 224.7C100.389 224.504 100.5 224.239 100.501 223.961Z" fill="white"/>
<path d="M75.9283 214.76V192.207H72.4589V214.76C58.943 215.11 50.725 219.828 49.0838 220.863C48.987 220.921 48.9074 221.003 48.8535 221.102C48.7997 221.2 48.7736 221.312 48.7781 221.424V223.294C48.7772 223.382 48.7938 223.468 48.8266 223.549C48.8595 223.63 48.9081 223.704 48.9696 223.766C49.0311 223.828 49.1043 223.877 49.1849 223.911C49.2656 223.944 49.3521 223.961 49.4395 223.961C49.5563 223.96 49.6708 223.929 49.7715 223.87C49.8723 223.811 49.9557 223.726 50.0136 223.625L50.8186 222.216C57.8211 219.985 65.1103 218.78 72.4589 218.638V222.378C72.4589 222.491 72.4812 222.602 72.5245 222.706C72.5679 222.81 72.6314 222.905 72.7115 222.984C72.7915 223.064 72.8865 223.126 72.9909 223.169C73.0954 223.211 73.2072 223.233 73.32 223.232H75.0734C75.3002 223.232 75.5176 223.142 75.6779 222.982C75.8383 222.822 75.9283 222.605 75.9283 222.378V218.638C83.279 218.78 90.5703 219.985 97.5749 222.216L98.3736 223.625C98.432 223.727 98.5164 223.812 98.6184 223.871C98.7203 223.93 98.8361 223.961 98.9539 223.961C99.1299 223.96 99.2982 223.889 99.422 223.764C99.5459 223.639 99.6154 223.47 99.6154 223.294V221.424C99.6198 221.312 99.5937 221.2 99.5399 221.102C99.4861 221.003 99.4065 220.921 99.3096 220.863C97.6622 219.828 89.4504 215.11 75.9283 214.76Z" fill="#263238"/>
<path d="M75.3355 221.86H73.0579V226.056H75.3355V221.86Z" fill="#263238"/>
<path opacity="0.2" d="M77.7692 178.399H70.6306V186.597H77.7692V178.399Z" fill="black"/>
<path d="M103.178 176.366V178.723C103.178 178.881 103.147 179.038 103.086 179.184C103.025 179.331 102.936 179.464 102.823 179.575C102.711 179.687 102.577 179.776 102.431 179.836C102.284 179.896 102.126 179.926 101.968 179.926H46.4318C46.2734 179.926 46.1164 179.896 45.97 179.836C45.8235 179.776 45.6904 179.687 45.5784 179.575C45.4664 179.463 45.3777 179.33 45.3175 179.184C45.2573 179.038 45.2267 178.881 45.2275 178.723V176.366C45.2275 176.047 45.3544 175.741 45.5802 175.515C45.8061 175.29 46.1124 175.163 46.4318 175.163H101.968C102.288 175.163 102.595 175.29 102.822 175.515C103.048 175.741 103.177 176.047 103.178 176.366Z" fill="#263238"/>
<path d="M77.6256 177.583H45.2213C45.2213 177.583 34.944 160.477 34.944 132.214V121.835C34.9456 119.786 35.7616 117.821 37.2125 116.373C38.6634 114.925 40.6305 114.111 42.6816 114.111H56.4096C58.4186 114.11 60.3491 114.891 61.7922 116.287C63.2353 117.683 64.0777 119.586 64.1409 121.592C64.5341 136.179 66.6806 167.715 77.6256 177.583Z" fill="#263238"/>
<path opacity="0.2" d="M70.512 177.583H46.6814C46.2308 177.585 45.7885 177.462 45.4031 177.229C45.0177 176.996 44.7043 176.661 44.4974 176.261C42.1512 171.748 34.944 155.896 34.944 132.214V121.835C34.944 119.786 35.7585 117.822 37.2084 116.374C38.6583 114.925 40.6248 114.111 42.6753 114.111H54.5313C56.5403 114.11 58.4708 114.891 59.914 116.287C61.3571 117.683 62.1995 119.586 62.2627 121.592C62.6184 134.601 64.3656 161.163 72.54 173.712C72.787 174.084 72.9294 174.515 72.9525 174.961C72.9757 175.407 72.8785 175.85 72.6713 176.246C72.4641 176.641 72.1545 176.974 71.7746 177.209C71.3948 177.444 70.9587 177.573 70.512 177.583Z" fill="white"/>
<path opacity="0.2" d="M103.178 176.366V178.723C103.178 179.042 103.051 179.348 102.826 179.573C102.6 179.799 102.293 179.926 101.974 179.926H77.0827C76.8691 179.926 76.6575 179.885 76.4599 179.804C76.2623 179.723 76.0827 179.604 75.9314 179.453C75.7801 179.303 75.6601 179.124 75.5781 178.927C75.4962 178.729 75.454 178.518 75.454 178.305V176.79C75.454 176.359 75.6256 175.945 75.9311 175.64C76.2365 175.335 76.6507 175.163 77.0827 175.163H101.968C102.288 175.163 102.595 175.29 102.822 175.515C103.048 175.741 103.177 176.047 103.178 176.366Z" fill="black"/>
<path d="M45.2087 113.196L47.2679 110.503C47.2679 110.503 56.0601 110.902 56.2723 114.112C56.4844 117.323 45.2087 113.196 45.2087 113.196Z" fill="#407BFF"/>
<path d="M39.4306 121.254C39.4306 121.254 39.9672 135.529 39.4306 172.37C39.4306 173.617 34.7755 173.567 34.4386 172.37C33.3216 168.175 34.4386 134.675 34.4386 134.675" fill="#407BFF"/>
<path d="M34.5446 172.559L39.2808 172.721V175.083L34.5446 174.84V172.559Z" fill="#407BFF"/>
<path opacity="0.2" d="M39.4306 121.254C39.4306 121.254 39.9672 135.529 39.4306 172.37C39.4306 173.617 34.7755 173.567 34.4386 172.37C33.3216 168.175 34.4386 134.675 34.4386 134.675" fill="white"/>
<path d="M32.2046 164.84C31.9488 158.045 31.019 126.814 34.9253 116.467C34.9253 116.467 38.6006 111.804 51.037 111.804C63.4733 111.804 67.2173 120.624 67.2173 120.624C67.2173 120.624 67.7539 134.893 67.2173 171.741C67.2173 172.987 62.5622 172.944 62.2253 171.741C61.1083 167.552 62.2253 134.046 62.2253 134.046L59.7293 164.528C59.7202 164.63 59.6903 164.73 59.6414 164.82C59.5926 164.91 59.5258 164.99 59.4452 165.053C59.3646 165.117 59.2719 165.163 59.1726 165.19C59.0734 165.216 58.9698 165.223 58.8682 165.208C54.9432 164.584 37.6522 162.159 33.0782 165.276C32.9954 165.33 32.9001 165.36 32.8017 165.366C32.7033 165.371 32.6052 165.351 32.5171 165.307C32.4289 165.263 32.3538 165.196 32.299 165.115C32.2442 165.033 32.2117 164.938 32.2046 164.84Z" fill="#407BFF"/>
<path d="M62.3313 171.93L67.0675 172.092V174.454L62.3313 174.211V171.93Z" fill="#407BFF"/>
<path d="M59.124 165.24L58.7496 167.734C58.7496 167.734 39.4493 163.532 33.1968 168.008L32.8224 165.247C32.8224 165.247 37.6521 160.796 59.124 165.24Z" fill="#407BFF"/>
<path opacity="0.4" d="M32.2046 164.84C31.9488 158.045 31.019 126.814 34.9253 116.467C34.9253 116.467 38.6006 111.804 51.037 111.804C63.4733 111.804 67.2173 120.624 67.2173 120.624C67.2173 120.624 67.7539 134.893 67.2173 171.741C67.2173 172.987 62.5622 172.944 62.2253 171.741C61.1083 167.552 62.2253 134.046 62.2253 134.046L59.7293 164.528C59.7202 164.63 59.6903 164.73 59.6414 164.82C59.5926 164.91 59.5258 164.99 59.4452 165.053C59.3646 165.117 59.2719 165.163 59.1726 165.19C59.0734 165.216 58.9698 165.223 58.8682 165.208C54.9432 164.584 37.6522 162.159 33.0782 165.276C32.9954 165.33 32.9001 165.36 32.8017 165.366C32.7033 165.371 32.6052 165.351 32.5171 165.307C32.4289 165.263 32.3538 165.196 32.299 165.115C32.2442 165.033 32.2117 164.938 32.2046 164.84Z" fill="white"/>
<path opacity="0.2" d="M62.244 134.046C62.244 134.046 62.5185 124.371 67.236 120.625C67.2172 120.625 61.3392 123.15 62.244 134.046Z" fill="black"/>
<path opacity="0.2" d="M48.0917 112.92C48.0917 112.92 42.4133 116.037 41.5085 158.507C41.5085 158.507 39.0375 115.663 48.0917 112.92Z" fill="black"/>
</svg>
