<svg width="312" height="239" viewBox="0 0 312 239" fill="none" xmlns="http://www.w3.org/2000/svg">
<path d="M156 239C222.819 239 276.987 235.844 276.987 231.951C276.987 228.059 222.819 224.903 156 224.903C89.1805 224.903 35.0126 228.059 35.0126 231.951C35.0126 235.844 89.1805 239 156 239Z" fill="#F5F5F5"/>
<path d="M148.762 176.078H28.2734C27.329 176.076 26.4236 175.701 25.7558 175.035C25.088 174.368 24.712 173.465 24.7104 172.523V3.52405C24.7202 2.58707 25.0998 1.69172 25.7667 1.03206C26.4337 0.372396 27.3343 0.00158663 28.2734 0H148.762C149.705 0.00164941 150.61 0.376941 151.277 1.04349C151.944 1.71003 152.318 2.61337 152.318 3.55518V172.523C152.318 173.465 151.944 174.368 151.277 175.034C150.61 175.701 149.705 176.076 148.762 176.078ZM28.2734 0.124525C27.3703 0.126171 26.5047 0.484862 25.8661 1.12204C25.2275 1.75922 24.868 2.62294 24.8664 3.52405V172.523C24.868 173.424 25.2275 174.288 25.8661 174.925C26.5047 175.562 27.3703 175.921 28.2734 175.922H148.762C149.664 175.921 150.529 175.562 151.167 174.924C151.804 174.287 152.162 173.423 152.162 172.523V3.52405C152.162 2.62352 151.804 1.75978 151.167 1.12242C150.529 0.485067 149.664 0.126174 148.762 0.124525H28.2734Z" fill="#E6E6E6"/>
<path d="M283.733 176.078H163.238C162.295 176.076 161.39 175.701 160.723 175.034C160.056 174.368 159.682 173.465 159.682 172.523V3.52405C159.69 2.58764 160.068 1.69228 160.734 1.03245C161.4 0.372616 162.3 0.00160412 163.238 0H283.733C284.671 0.00160412 285.571 0.372616 286.237 1.03245C286.903 1.69228 287.281 2.58764 287.29 3.52405V172.523C287.29 173.465 286.915 174.368 286.248 175.034C285.581 175.701 284.677 176.076 283.733 176.078ZM163.238 0.124525C162.336 0.126174 161.471 0.485067 160.833 1.12242C160.196 1.75978 159.838 2.62352 159.838 3.52405V172.523C159.838 173.423 160.196 174.287 160.833 174.924C161.471 175.562 162.336 175.921 163.238 175.922H283.733C284.637 175.921 285.503 175.562 286.142 174.925C286.782 174.288 287.143 173.424 287.146 172.523V3.52405C287.143 2.62237 286.782 1.75866 286.142 1.12166C285.503 0.484656 284.637 0.126165 283.733 0.124525H163.238Z" fill="#E6E6E6"/>
<path d="M53.6265 207.633H27.9115V207.789H53.6265V207.633Z" fill="#E0E0E0"/>
<path d="M106.043 206.388H80.2526V206.544H106.043V206.388Z" fill="#E0E0E0"/>
<path d="M139.601 206.388H133.361V206.544H139.601V206.388Z" fill="#E0E0E0"/>
<path d="M77.2325 211.705H48.3725V211.861H77.2325V211.705Z" fill="#E0E0E0"/>
<path d="M177.054 207.552H163.575V207.708H177.054V207.552Z" fill="#E0E0E0"/>
<path d="M200.036 207.552H182.607V207.708H200.036V207.552Z" fill="#E0E0E0"/>
<path d="M284.089 210.186H245.126V210.342H284.089V210.186Z" fill="#E0E0E0"/>
<path d="M312 201.525H0V201.681H312V201.525Z" fill="#EBEBEB"/>
<path opacity="0.8" d="M208.934 12.9207L207.38 34.2642C207.327 34.9875 207.02 35.6689 206.513 36.1881C206.224 36.4958 205.875 36.7416 205.488 36.9108C205.101 37.0799 204.683 37.1687 204.26 37.1719H187.106C186.732 37.1757 186.36 37.1015 186.016 36.9541C185.672 36.8066 185.362 36.5892 185.106 36.3156C184.851 36.042 184.655 35.7182 184.532 35.365C184.41 35.0118 184.362 34.6369 184.392 34.2642L185.952 12.9207C186.016 12.1353 186.371 11.402 186.948 10.8642C187.525 10.3264 188.282 10.0229 189.072 10.013H206.226C206.601 10.0072 206.973 10.0801 207.318 10.2269C207.663 10.3737 207.973 10.5913 208.228 10.8654C208.484 11.1396 208.679 11.4642 208.8 11.8182C208.922 12.1723 208.967 12.5479 208.934 12.9207Z" fill="#E0E0E0"/>
<path d="M201.372 23.5336C202.023 20.4304 200.508 17.4882 197.988 16.9621C195.468 16.4359 192.898 18.525 192.247 21.6282C191.596 24.7314 193.111 27.6736 195.631 28.1998C198.151 28.7259 200.721 26.6368 201.372 23.5336Z" fill="white"/>
<path d="M203.661 35.7005H187.961C186.963 35.7005 186.276 35.2211 186.252 34.5549C186.214 33.5836 191.306 29.3809 196.136 29.7483H196.248C199.215 29.8531 202.061 30.9495 204.329 32.8614C206.663 34.6919 204.46 35.7005 203.661 35.7005Z" fill="white"/>
<path d="M120.432 36.3915C118.791 36.3851 117.212 35.7704 116 34.667C114.788 33.5636 114.03 32.0501 113.874 30.4206C113.801 29.6466 113.89 28.8661 114.136 28.1285C114.382 27.3909 114.779 26.7125 115.302 26.1363C115.825 25.5601 116.462 25.0987 117.174 24.7815C117.885 24.4644 118.655 24.2983 119.434 24.2939C121.074 24.3004 122.654 24.915 123.866 26.0184C125.078 27.1219 125.835 28.6353 125.992 30.2649C126.065 31.0388 125.975 31.8194 125.729 32.557C125.483 33.2945 125.086 33.973 124.563 34.5492C124.04 35.1254 123.403 35.5867 122.692 35.9039C121.981 36.2211 121.211 36.3871 120.432 36.3915ZM119.702 27.5067C119.336 27.5067 118.974 27.5831 118.64 27.7309C118.306 27.8788 118.006 28.0948 117.76 28.3652C117.515 28.6355 117.328 28.9542 117.214 29.3007C117.099 29.6472 117.058 30.0138 117.094 30.377C117.17 31.1401 117.527 31.848 118.095 32.3651C118.662 32.8821 119.401 33.1719 120.17 33.1788C120.535 33.1779 120.896 33.1009 121.23 32.9527C121.563 32.8044 121.862 32.5883 122.107 32.318C122.352 32.0477 122.538 31.7294 122.652 31.3833C122.767 31.0373 122.808 30.6712 122.772 30.3085C122.695 29.5485 122.342 28.8432 121.778 28.3265C121.214 27.8099 120.48 27.5181 119.714 27.5067H119.702Z" fill="#E0E0E0"/>
<path d="M120.744 27.0407L118.448 27.0719L117.225 12.3032L119.527 12.2783L120.744 27.0407Z" fill="#E0E0E0"/>
<path d="M121.705 12.9381L117.387 12.9941L117.2 10.6967L121.518 10.6406L121.705 12.9381Z" fill="#E0E0E0"/>
<path d="M121.955 15.8883L117.892 15.9381L117.705 13.6406L121.761 13.5908L121.955 15.8883Z" fill="#E0E0E0"/>
<path d="M122.304 20.0481L118.76 20.0917L118.566 17.8004L122.111 17.7568L122.304 20.0481Z" fill="#E0E0E0"/>
<path d="M49.4895 161.907C49.5027 162.092 49.5256 162.277 49.5581 162.461C49.7731 163.655 50.3709 164.748 51.2616 165.574C52.2734 166.532 53.6109 167.072 55.0056 167.087H107.727C108.977 167.107 110.184 166.634 111.086 165.771C111.988 164.909 112.512 163.726 112.545 162.479C112.559 161.741 112.426 161.007 112.155 160.32C111.884 159.632 111.479 159.005 110.964 158.475C110.449 157.944 109.834 157.52 109.154 157.228C108.475 156.935 107.744 156.78 107.004 156.77H54.288C53.6254 156.762 52.9684 156.892 52.3591 157.151C51.7498 157.411 51.2017 157.795 50.7498 158.279C50.298 158.763 49.9525 159.335 49.7355 159.96C49.5184 160.585 49.4346 161.248 49.4895 161.907Z" fill="#F0F0F0"/>
<path d="M112.563 162.461C112.559 162.628 112.543 162.794 112.513 162.959C112.361 161.6 111.716 160.344 110.7 159.426C109.685 158.509 108.367 157.994 106.997 157.978L50.9308 158.065C51.8366 157.199 53.046 156.721 54.3004 156.733H107.022C107.767 156.727 108.505 156.872 109.192 157.159C109.878 157.447 110.5 157.87 111.018 158.404C111.536 158.938 111.94 159.571 112.205 160.265C112.471 160.959 112.593 161.7 112.563 162.442V162.461Z" fill="#E0E0E0"/>
<path d="M103.54 159.235L103.715 161.726L106.08 160.848L106.617 162.093L104.208 162.915L105.893 165.026L104.832 165.823L103.191 163.631L101.88 165.823L100.714 165.026L102.08 162.915L99.5842 162.124L99.9399 160.879L102.436 161.726L102.261 159.235H103.54Z" fill="white"/>
<path d="M89.1197 159.235L89.3006 161.726L91.6594 160.848L92.196 162.093L89.7811 162.884L91.4722 164.995L90.3802 165.791L88.7391 163.6L87.4286 165.791L86.2618 164.995L87.6283 162.884L85.1323 162.093L85.4942 160.848L87.9902 161.695L87.8155 159.204L89.1197 159.235Z" fill="white"/>
<path d="M74.7053 159.235L74.88 161.726L77.245 160.848L77.7816 162.093L75.3667 162.884L77.0515 164.995L75.9595 165.791L74.3184 163.6L73.008 165.791L71.8411 164.995L73.2077 162.884L70.7117 162.093L71.0736 160.848L73.5696 161.695L73.3949 159.204L74.7053 159.235Z" fill="white"/>
<path d="M60.2846 159.235L60.4593 161.726L62.8243 160.848L63.3609 162.093L60.946 162.884L62.6308 164.995L61.5451 165.792L59.904 163.631L58.5873 165.823L57.408 165.026L58.7808 162.915L56.2848 162.124L56.6467 160.879L59.1427 161.726L58.968 159.235H60.2846Z" fill="white"/>
<path d="M95.3098 154.936H92.8512L92.8574 154.312H95.316L95.3098 154.936Z" fill="#E0E0E0"/>
<path d="M105.874 154.936H97.8557L97.8682 154.312H105.887L105.874 154.936Z" fill="#E0E0E0"/>
<g opacity="0.8">
<path d="M168.093 151.796L178.04 167.068L210.837 134.343C210.869 134.315 210.895 134.281 210.914 134.243C210.933 134.204 210.944 134.163 210.946 134.12C210.949 134.078 210.943 134.035 210.929 133.995C210.915 133.955 210.893 133.918 210.865 133.886C210.837 133.854 210.803 133.828 210.764 133.809C210.726 133.791 210.684 133.78 210.642 133.777C210.599 133.774 210.556 133.78 210.516 133.794C210.476 133.808 210.438 133.83 210.407 133.858L179.15 158.314L173.247 148.819L168.093 151.796Z" fill="#E0E0E0"/>
</g>
<path opacity="0.1" d="M162.153 43.0957L138.603 130.985H146.522L169.809 43.0957H162.153Z" fill="white"/>
<path opacity="0.1" d="M174.377 43.0957L150.827 130.985H166.539L189.827 43.0957H174.377Z" fill="white"/>
<path d="M259.154 122.393L264.146 51.8496C264.192 51.3076 264.124 50.7619 263.945 50.2478C263.767 49.7338 263.482 49.2628 263.11 48.8655C262.738 48.4681 262.286 48.1532 261.784 47.9412C261.282 47.7291 260.741 47.6246 260.196 47.6344L136.806 47.7403C135.658 47.7561 134.557 48.1967 133.716 48.9768C132.876 49.7568 132.356 50.8206 132.257 51.9617L127.296 122.511C127.251 123.053 127.32 123.599 127.499 124.113C127.678 124.627 127.963 125.098 128.336 125.495C128.709 125.893 129.161 126.207 129.663 126.419C130.166 126.632 130.707 126.736 131.252 126.726L254.592 126.62C255.743 126.609 256.849 126.169 257.693 125.387C258.536 124.605 259.057 123.538 259.154 122.393Z" fill="#263238"/>
<path d="M257.568 120.855L262.56 50.3116C262.608 49.7694 262.54 49.2233 262.362 48.7088C262.184 48.1943 261.9 47.723 261.527 47.3254C261.155 46.9279 260.702 46.613 260.2 46.4013C259.697 46.1895 259.156 46.0857 258.611 46.0965L135.221 46.2023C134.073 46.2169 132.972 46.6573 132.132 47.4377C131.293 48.2181 130.774 49.2826 130.678 50.4237L125.686 120.973C125.64 121.515 125.708 122.061 125.886 122.575C126.065 123.089 126.349 123.56 126.722 123.957C127.094 124.355 127.546 124.67 128.048 124.882C128.55 125.094 129.091 125.198 129.636 125.188L253.02 125.082C254.169 125.068 255.271 124.627 256.112 123.845C256.953 123.064 257.472 121.998 257.568 120.855Z" fill="#407BFF"/>
<path opacity="0.6" d="M254.299 121.902C254.045 122.134 253.713 122.263 253.369 122.263L129.979 122.369C129.781 122.367 129.586 122.324 129.405 122.245C129.223 122.165 129.06 122.05 128.925 121.905C128.79 121.761 128.685 121.591 128.617 121.405C128.55 121.219 128.521 121.022 128.532 120.825L133.524 50.2815C133.543 49.939 133.695 49.6174 133.948 49.3849C134.2 49.1498 134.533 49.0204 134.878 49.0238L258.267 48.918C258.465 48.9202 258.661 48.9624 258.842 49.0421C259.023 49.1217 259.187 49.2372 259.322 49.3815C259.457 49.5258 259.562 49.6959 259.629 49.8816C259.697 50.0673 259.726 50.2648 259.715 50.4621L254.723 121.005C254.701 121.347 254.549 121.667 254.299 121.902Z" fill="white"/>
<path d="M213.258 83.1192H169.946C169.565 83.1255 169.198 83.2697 168.915 83.525C168.631 83.7803 168.45 84.1294 168.405 84.5076L167.737 90.8272C167.716 91.0029 167.733 91.181 167.786 91.3498C167.839 91.5186 167.927 91.6741 168.046 91.8061C168.164 91.938 168.309 92.0434 168.471 92.1151C168.633 92.1868 168.808 92.2232 168.985 92.2219H212.297C212.68 92.2143 213.048 92.069 213.332 91.8128C213.616 91.5566 213.798 91.2066 213.845 90.8272L214.506 84.5076C214.527 84.3325 214.509 84.155 214.456 83.987C214.402 83.819 214.314 83.6642 214.196 83.533C214.078 83.4017 213.933 83.297 213.771 83.2256C213.61 83.1543 213.435 83.118 213.258 83.1192Z" fill="white"/>
<path d="M175.101 108.926H168.343C167.96 108.933 167.592 109.079 167.308 109.335C167.024 109.591 166.842 109.941 166.795 110.32L166.134 116.64C166.113 116.815 166.131 116.993 166.184 117.161C166.238 117.329 166.326 117.484 166.444 117.615C166.562 117.746 166.707 117.851 166.869 117.922C167.03 117.993 167.205 118.03 167.382 118.029H174.14C174.522 118.021 174.888 117.877 175.173 117.622C175.457 117.367 175.639 117.018 175.687 116.64L176.349 110.32C176.37 110.145 176.354 109.967 176.3 109.798C176.247 109.629 176.159 109.474 176.041 109.342C175.923 109.21 175.778 109.104 175.616 109.033C175.454 108.961 175.278 108.925 175.101 108.926Z" fill="white"/>
<path d="M186.77 108.926H180.012C179.629 108.933 179.261 109.079 178.977 109.335C178.693 109.591 178.511 109.941 178.464 110.32L177.803 116.64C177.782 116.815 177.799 116.993 177.853 117.161C177.907 117.329 177.995 117.484 178.113 117.615C178.231 117.746 178.376 117.851 178.537 117.922C178.699 117.993 178.874 118.03 179.051 118.029H185.809C186.191 118.021 186.557 117.877 186.841 117.622C187.125 117.367 187.308 117.018 187.356 116.64L188.018 110.32C188.039 110.145 188.022 109.967 187.969 109.798C187.916 109.629 187.828 109.474 187.709 109.342C187.591 109.21 187.446 109.104 187.284 109.033C187.122 108.961 186.947 108.925 186.77 108.926Z" fill="white"/>
<path d="M198.432 108.926H191.68C191.297 108.933 190.93 109.079 190.646 109.335C190.361 109.591 190.179 109.941 190.133 110.32L189.471 116.64C189.451 116.815 189.468 116.993 189.522 117.161C189.575 117.329 189.664 117.484 189.782 117.615C189.9 117.746 190.045 117.851 190.206 117.922C190.368 117.993 190.543 118.03 190.719 118.029H197.477C197.859 118.021 198.226 117.877 198.51 117.622C198.794 117.367 198.977 117.018 199.025 116.64L199.68 110.32C199.701 110.145 199.685 109.967 199.632 109.798C199.579 109.629 199.49 109.474 199.372 109.342C199.254 109.21 199.109 109.104 198.947 109.033C198.785 108.961 198.609 108.925 198.432 108.926Z" fill="white"/>
<path d="M210.107 108.926H203.349C202.966 108.933 202.599 109.079 202.315 109.335C202.03 109.591 201.848 109.941 201.802 110.32L201.14 116.64C201.12 116.815 201.137 116.993 201.191 117.161C201.244 117.329 201.333 117.484 201.451 117.615C201.569 117.746 201.713 117.851 201.875 117.922C202.037 117.993 202.211 118.03 202.388 118.029H209.146C209.528 118.021 209.895 117.877 210.179 117.622C210.463 117.367 210.646 117.018 210.694 116.64L211.355 110.32C211.376 110.145 211.36 109.967 211.307 109.798C211.254 109.629 211.165 109.474 211.047 109.342C210.929 109.21 210.784 109.104 210.622 109.033C210.46 108.961 210.284 108.925 210.107 108.926Z" fill="white"/>
<path d="M202.469 104.934H175.381C175.035 104.942 174.69 104.876 174.371 104.739C174.053 104.602 173.767 104.397 173.535 104.14C173.303 103.883 173.129 103.579 173.026 103.248C172.922 102.918 172.891 102.569 172.935 102.226L173.26 99.1125C173.35 98.3917 173.697 97.7275 174.238 97.2414C174.779 96.7554 175.477 96.4803 176.205 96.4664H203.293C203.64 96.4591 203.985 96.5266 204.304 96.6643C204.622 96.802 204.907 97.0067 205.139 97.2644C205.372 97.522 205.545 97.8266 205.649 98.1574C205.752 98.4882 205.783 98.8373 205.739 99.181L205.415 102.294C205.323 103.014 204.975 103.677 204.435 104.161C203.894 104.646 203.196 104.92 202.469 104.934ZM176.205 97.0952C175.631 97.1084 175.08 97.3268 174.653 97.7106C174.226 98.0945 173.951 98.6184 173.878 99.1872L173.553 102.3C173.519 102.557 173.541 102.819 173.617 103.066C173.694 103.314 173.824 103.542 173.998 103.734C174.172 103.927 174.386 104.079 174.625 104.181C174.864 104.283 175.122 104.332 175.381 104.324H202.469C203.043 104.312 203.594 104.095 204.021 103.712C204.448 103.329 204.724 102.806 204.797 102.238L205.121 99.125C205.156 98.8681 205.134 98.6067 205.057 98.3591C204.98 98.1115 204.85 97.8836 204.676 97.691C204.503 97.4985 204.289 97.3461 204.05 97.2443C203.811 97.1425 203.553 97.0937 203.293 97.1014L176.205 97.0952Z" fill="#407BFF"/>
<path d="M214.818 69.9551H171.506C171.125 69.9642 170.759 70.1102 170.476 70.3662C170.193 70.6223 170.011 70.9714 169.965 71.3498L169.297 77.6694C169.277 77.8445 169.294 78.022 169.348 78.19C169.401 78.358 169.49 78.5128 169.608 78.644C169.726 78.7753 169.871 78.8801 170.032 78.9514C170.194 79.0227 170.369 79.059 170.545 79.0578H213.851C214.233 79.0504 214.6 78.906 214.884 78.6511C215.168 78.3961 215.351 78.0477 215.399 77.6694L216.06 71.3498C216.081 71.1747 216.065 70.9971 216.012 70.8287C215.959 70.6604 215.871 70.5051 215.754 70.3733C215.637 70.2414 215.493 70.136 215.331 70.0639C215.17 69.9918 214.995 69.9547 214.818 69.9551Z" fill="white"/>
<path d="M175.213 87.6694C175.239 87.4743 175.223 87.2757 175.165 87.0875C175.107 86.8993 175.008 86.7258 174.877 86.5791C174.745 86.4324 174.583 86.3158 174.402 86.2375C174.221 86.1592 174.025 86.1209 173.828 86.1253C173.404 86.1354 172.998 86.2967 172.683 86.58C172.368 86.8633 172.165 87.2498 172.112 87.6694C172.088 87.8645 172.106 88.0625 172.165 88.2499C172.224 88.4374 172.323 88.6099 172.455 88.7558C172.587 88.9017 172.749 89.0175 172.93 89.0954C173.111 89.1733 173.306 89.2115 173.503 89.2073C173.926 89.1986 174.331 89.0384 174.645 88.756C174.959 88.4737 175.161 88.0879 175.213 87.6694Z" fill="#263238"/>
<path d="M179.98 87.6694C180.006 87.4739 179.988 87.2752 179.929 87.087C179.871 86.8988 179.772 86.7255 179.64 86.5789C179.507 86.4323 179.345 86.3159 179.164 86.2376C178.983 86.1593 178.786 86.121 178.589 86.1253C178.165 86.1342 177.759 86.2953 177.445 86.579C177.131 86.8626 176.93 87.2498 176.879 87.6694C176.854 87.8641 176.871 88.062 176.93 88.2495C176.988 88.4369 177.086 88.6096 177.218 88.7556C177.35 88.9016 177.511 89.0176 177.692 89.0955C177.872 89.1735 178.068 89.2116 178.264 89.2073C178.688 89.1988 179.094 89.0388 179.409 88.7565C179.724 88.4742 179.927 88.0884 179.98 87.6694Z" fill="#263238"/>
<path d="M184.741 87.6694C184.767 87.4739 184.749 87.2752 184.69 87.087C184.632 86.8988 184.533 86.7255 184.401 86.5789C184.269 86.4323 184.106 86.3159 183.925 86.2376C183.744 86.1593 183.547 86.121 183.35 86.1253C182.926 86.1342 182.52 86.2953 182.206 86.579C181.892 86.8626 181.691 87.2498 181.64 87.6694C181.616 87.8645 181.634 88.0625 181.693 88.2499C181.753 88.4374 181.852 88.6099 181.984 88.7558C182.116 88.9017 182.278 89.0175 182.458 89.0954C182.639 89.1733 182.835 89.2115 183.032 89.2073C183.454 89.1986 183.86 89.0384 184.174 88.756C184.488 88.4736 184.689 88.0879 184.741 87.6694Z" fill="#263238"/>
<path d="M189.503 87.6695C189.529 87.4743 189.512 87.2757 189.454 87.0875C189.396 86.8993 189.298 86.7258 189.166 86.5791C189.035 86.4324 188.873 86.3158 188.692 86.2375C188.511 86.1592 188.315 86.1209 188.117 86.1253C187.694 86.1343 187.288 86.2953 186.974 86.579C186.66 86.8626 186.459 87.2498 186.408 87.6695C186.382 87.8666 186.4 88.067 186.46 88.2564C186.52 88.4459 186.622 88.6198 186.757 88.7659C186.892 88.912 187.057 89.0267 187.242 89.1019C187.426 89.1771 187.625 89.211 187.824 89.2011C188.24 89.1853 188.637 89.0227 188.945 88.7423C189.252 88.4618 189.45 88.0817 189.503 87.6695Z" fill="#263238"/>
<path d="M194.364 87.6694C194.389 87.4739 194.371 87.2752 194.313 87.087C194.254 86.8988 194.155 86.7255 194.023 86.5789C193.891 86.4323 193.728 86.3159 193.547 86.2376C193.366 86.1593 193.17 86.121 192.972 86.1253C192.548 86.1342 192.142 86.2953 191.828 86.579C191.514 86.8626 191.313 87.2498 191.262 87.6694C191.237 87.8641 191.254 88.062 191.313 88.2495C191.371 88.4369 191.47 88.6096 191.601 88.7556C191.733 88.9016 191.894 89.0176 192.075 89.0955C192.255 89.1735 192.451 89.2116 192.648 89.2073C193.071 89.1988 193.477 89.0388 193.792 88.7565C194.107 88.4742 194.31 88.0884 194.364 87.6694Z" fill="#263238"/>
<path d="M176.773 74.5062C176.799 74.3113 176.783 74.113 176.725 73.9251C176.667 73.7371 176.568 73.564 176.437 73.4178C176.305 73.2715 176.143 73.1556 175.962 73.0779C175.781 73.0003 175.585 72.9629 175.388 72.9683C174.965 72.977 174.56 73.1372 174.246 73.4196C173.932 73.702 173.73 74.0877 173.678 74.5062C173.652 74.7011 173.668 74.8993 173.726 75.0873C173.784 75.2752 173.883 75.4483 174.014 75.5946C174.146 75.7408 174.308 75.8568 174.489 75.9344C174.67 76.012 174.866 76.0494 175.063 76.044C175.486 76.0366 175.892 75.8769 176.206 75.5942C176.521 75.3116 176.722 74.9252 176.773 74.5062Z" fill="#263238"/>
<path d="M181.54 74.506C181.565 74.3109 181.546 74.1129 181.487 73.9255C181.428 73.738 181.329 73.5655 181.197 73.4196C181.065 73.2737 180.903 73.1579 180.722 73.08C180.541 73.0021 180.346 72.9639 180.149 72.9681C179.731 72.9827 179.331 73.1455 179.023 73.4273C178.714 73.7092 178.516 74.0916 178.464 74.506C178.439 74.7007 178.456 74.8985 178.515 75.086C178.573 75.2735 178.671 75.4461 178.803 75.5921C178.935 75.7381 179.096 75.8541 179.277 75.9321C179.457 76.01 179.653 76.0482 179.849 76.0438C180.269 76.0307 180.669 75.8686 180.98 75.5866C181.29 75.3046 181.489 74.9214 181.54 74.506Z" fill="#263238"/>
<path d="M186.301 74.506C186.327 74.3113 186.309 74.1134 186.251 73.926C186.192 73.7385 186.094 73.5659 185.963 73.4198C185.831 73.2738 185.669 73.1579 185.489 73.0799C185.308 73.0019 185.113 72.9638 184.916 72.9681C184.493 72.9766 184.087 73.1366 183.772 73.4189C183.457 73.7012 183.254 74.087 183.2 74.506C183.175 74.7012 183.192 74.8996 183.251 75.0875C183.31 75.2755 183.409 75.4484 183.541 75.5945C183.673 75.7407 183.836 75.8565 184.017 75.9341C184.198 76.0116 184.394 76.0491 184.592 76.0439C185.015 76.0364 185.421 75.8767 185.735 75.5941C186.049 75.3114 186.25 74.925 186.301 74.506Z" fill="#263238"/>
<path d="M191.063 74.5062C191.089 74.3113 191.072 74.113 191.014 73.9251C190.956 73.7371 190.858 73.564 190.726 73.4178C190.594 73.2715 190.432 73.1556 190.251 73.0779C190.07 73.0003 189.874 72.9629 189.677 72.9683C189.255 72.977 188.849 73.1372 188.535 73.4196C188.221 73.702 188.02 74.0877 187.968 74.5062C187.941 74.7011 187.958 74.8993 188.016 75.0873C188.074 75.2752 188.172 75.4483 188.304 75.5946C188.436 75.7408 188.598 75.8568 188.779 75.9344C188.96 76.012 189.156 76.0494 189.353 76.044C189.776 76.0366 190.182 75.8769 190.496 75.5942C190.81 75.3116 191.011 74.9252 191.063 74.5062Z" fill="#263238"/>
<path d="M195.83 74.506C195.854 74.3109 195.836 74.1129 195.777 73.9255C195.718 73.738 195.619 73.5655 195.487 73.4196C195.355 73.2737 195.193 73.1579 195.012 73.08C194.831 73.0021 194.635 72.9639 194.438 72.9681C194.016 72.9768 193.611 73.137 193.297 73.4194C192.983 73.7018 192.781 74.0875 192.729 74.506C192.703 74.7012 192.721 74.8996 192.78 75.0875C192.839 75.2754 192.937 75.4484 193.07 75.5945C193.202 75.7407 193.364 75.8565 193.546 75.934C193.727 76.0116 193.923 76.0491 194.12 76.0438C194.543 76.0364 194.949 75.8767 195.263 75.594C195.578 75.3114 195.779 74.925 195.83 74.506Z" fill="#263238"/>
<path d="M200.591 74.506C200.616 74.3113 200.599 74.1134 200.541 73.926C200.482 73.7385 200.384 73.5659 200.252 73.4198C200.121 73.2738 199.959 73.1579 199.778 73.0799C199.598 73.0019 199.403 72.9638 199.206 72.9681C198.783 72.9766 198.376 73.1366 198.061 73.4189C197.746 73.7012 197.544 74.087 197.49 74.506C197.464 74.7012 197.482 74.8996 197.541 75.0875C197.6 75.2755 197.699 75.4484 197.831 75.5945C197.963 75.7407 198.125 75.8565 198.307 75.9341C198.488 76.0116 198.684 76.0491 198.881 76.0439C199.304 76.0364 199.71 75.8767 200.025 75.5941C200.339 75.3114 200.54 74.925 200.591 74.506Z" fill="#263238"/>
<path d="M196.56 56.0218L196.223 59.2158C196.199 59.3548 196.129 59.4816 196.024 59.5755C195.918 59.6693 195.784 59.7247 195.643 59.7326C195.576 59.735 195.51 59.7229 195.449 59.6971C195.388 59.6713 195.333 59.6324 195.288 59.5831C195.243 59.5338 195.21 59.4754 195.191 59.412C195.171 59.3485 195.166 59.2816 195.175 59.2158L195.512 56.0218C195.541 55.7853 195.52 55.5452 195.448 55.3178C195.376 55.0904 195.257 54.8811 195.097 54.7039C194.937 54.5267 194.741 54.386 194.522 54.2911C194.303 54.1962 194.066 54.1494 193.827 54.1539H192.673C192.16 54.1661 191.668 54.3612 191.287 54.7038C190.906 55.0465 190.66 55.514 190.595 56.0218L190.301 58.9854H189.253L189.546 56.0218C189.645 55.2294 190.027 54.4993 190.622 53.9652C191.217 53.4311 191.985 53.1289 192.785 53.1141H193.933C194.306 53.1047 194.676 53.1759 195.018 53.3228C195.361 53.4697 195.667 53.6888 195.917 53.965C196.166 54.2412 196.353 54.5681 196.464 54.9231C196.575 55.2781 196.608 55.6529 196.56 56.0218Z" fill="#407BFF"/>
<path d="M196.56 59.0976L195.905 65.3239C195.88 65.5172 195.786 65.695 195.64 65.8252C195.495 65.9554 195.308 66.0294 195.112 66.0337H188.872C188.783 66.0346 188.694 66.0161 188.612 65.9795C188.53 65.9429 188.456 65.8891 188.397 65.8217C188.338 65.7543 188.294 65.6749 188.268 65.589C188.243 65.5031 188.236 65.4126 188.248 65.3239L188.904 59.0976C188.916 58.9697 188.958 58.8465 189.028 58.7382C189.097 58.6299 189.192 58.5397 189.303 58.475C189.422 58.4054 189.558 58.3688 189.696 58.3692H195.936C196.064 58.3678 196.189 58.4024 196.298 58.4688C196.398 58.5369 196.476 58.6326 196.523 58.7443C196.569 58.856 196.582 58.9788 196.56 59.0976Z" fill="#407BFF"/>
<path d="M230.175 46.0864C230.092 46.0864 230.013 46.0535 229.954 45.995C229.896 45.9365 229.863 45.8571 229.863 45.7744C229.863 45.6916 229.896 45.6123 229.954 45.5537C230.013 45.4952 230.092 45.4624 230.175 45.4624L245.425 45.375C245.508 45.375 245.588 45.4079 245.646 45.4664C245.705 45.5249 245.737 45.6043 245.737 45.687C245.737 45.7697 245.705 45.8491 245.646 45.9076C245.588 45.9661 245.508 45.999 245.425 45.999L230.181 46.0864H230.175Z" fill="#263238"/>
<path d="M248.352 45.9795C248.269 45.9795 248.19 45.9466 248.131 45.8881C248.073 45.8296 248.04 45.7502 248.04 45.6675C248.04 45.5847 248.073 45.5054 248.131 45.4468C248.19 45.3883 248.269 45.3555 248.352 45.3555H253.743C253.826 45.3555 253.906 45.3883 253.964 45.4468C254.023 45.5054 254.055 45.5847 254.055 45.6675C254.055 45.7502 254.023 45.8296 253.964 45.8881C253.906 45.9466 253.826 45.9795 253.743 45.9795H248.352Z" fill="#263238"/>
<g opacity="0.3">
<path d="M146.702 49.0029H164.174L146.409 122.367H132.325C131.919 122.359 131.52 122.259 131.158 122.075C130.795 121.892 130.479 121.629 130.233 121.306C129.987 120.983 129.817 120.609 129.737 120.212C129.656 119.814 129.666 119.404 129.767 119.011L146.702 49.0029Z" fill="white"/>
<path d="M171.912 49.0029H179.319L161.572 122.367H154.165L171.912 49.0029Z" fill="white"/>
</g>
<path d="M54.0695 26.1064H57.6139C56.7835 26.0946 55.9599 26.2566 55.1962 26.582C54.4326 26.9075 53.7457 27.389 53.1801 27.9957C52.6144 28.6023 52.1825 29.3205 51.9123 30.104C51.642 30.8875 51.5394 31.7188 51.611 32.5443L59.1302 139.822C59.2727 141.559 60.0586 143.181 61.3346 144.371C62.6105 145.562 64.2851 146.235 66.0316 146.26H62.4935C60.7463 146.235 59.071 145.562 57.794 144.372C56.5171 143.182 55.7299 141.56 55.5859 139.822L48.0479 32.5443C47.9762 31.7172 48.0793 30.8843 48.3507 30.0995C48.6221 29.3147 49.0556 28.5956 49.6233 27.9886C50.191 27.3817 50.8801 26.9005 51.6461 26.5763C52.412 26.252 53.2376 26.0919 54.0695 26.1064Z" fill="#407BFF"/>
<path d="M54.0695 26.1061H57.6138C56.7835 26.0943 55.9599 26.2563 55.1962 26.5817C54.4325 26.9072 53.7457 27.3887 53.1801 27.9954C52.6144 28.602 52.1825 29.3202 51.9123 30.1037C51.642 30.8872 51.5394 31.7185 51.611 32.544L59.1302 139.822C59.2727 141.559 60.0586 143.181 61.3345 144.371C62.6105 145.561 64.2851 146.235 66.0316 146.26H62.4935C58.9305 146.26 55.3362 143.377 55.0866 139.822L47.5675 32.544C47.3179 28.9888 50.5065 26.1061 54.0695 26.1061Z" fill="#263238"/>
<path d="M63.5481 146.267H106.916C107.749 146.282 108.575 146.122 109.342 145.799C110.108 145.475 110.798 144.994 111.366 144.387C111.935 143.78 112.369 143.06 112.641 142.275C112.912 141.49 113.016 140.656 112.944 139.829L105.4 32.5444C105.259 30.8051 104.472 29.1809 103.195 27.9892C101.918 26.7975 100.241 26.124 98.4921 26.1002H55.1303C54.2994 26.0883 53.4753 26.2505 52.7111 26.5763C51.9469 26.9021 51.2598 27.3843 50.694 27.9916C50.1283 28.5989 49.6966 29.3179 49.4267 30.1022C49.1569 30.8864 49.0549 31.7184 49.1274 32.5444L56.6154 139.822C56.7584 141.565 57.5485 143.192 58.8309 144.384C60.1133 145.576 61.7955 146.248 63.5481 146.267Z" fill="#407BFF"/>
<g opacity="0.6">
<path d="M98.3797 28.1858C99.5947 28.205 100.759 28.6746 101.646 29.5033C102.533 30.332 103.079 31.4603 103.178 32.6687L110.697 139.947C110.749 140.494 110.683 141.046 110.506 141.567C110.328 142.087 110.042 142.564 109.667 142.967C109.292 143.37 108.835 143.689 108.328 143.903C107.821 144.118 107.274 144.223 106.723 144.212H63.3608C62.1452 144.193 60.9801 143.723 60.0921 142.895C59.2041 142.066 58.6566 140.938 58.556 139.729L51.068 32.4508C51.0173 31.906 51.0819 31.3566 51.2576 30.8383C51.4333 30.32 51.7163 29.8443 52.0882 29.4422C52.46 29.04 52.9125 28.7204 53.4161 28.5039C53.9198 28.2875 54.4634 28.1791 55.0117 28.1858H98.3797Z" fill="white"/>
</g>
<g opacity="0.3">
<path d="M86.1119 144.199H68.8334L83.098 28.1856H97.0195C97.6206 28.1833 98.2158 28.305 98.7677 28.5428C99.3196 28.7806 99.8163 29.1296 100.227 29.5678L86.1119 144.199Z" fill="white"/>
<path d="M65.7321 144.199H61.8383L76.103 28.1729H79.9967L65.7321 144.199Z" fill="white"/>
</g>
<path d="M95.7964 79.1806H64.3842C64.3015 79.1806 64.2221 79.1478 64.1636 79.0893C64.1051 79.0308 64.0722 78.9514 64.0722 78.8686C64.0722 78.7859 64.1051 78.7065 64.1636 78.648C64.2221 78.5895 64.3015 78.5566 64.3842 78.5566H95.7964C95.8786 78.5582 95.9571 78.5916 96.0153 78.6498C96.0734 78.708 96.1068 78.7864 96.1084 78.8686C96.1084 78.9514 96.0755 79.0308 96.017 79.0893C95.9585 79.1478 95.8791 79.1806 95.7964 79.1806Z" fill="white"/>
<path d="M93.0383 83.8183H68.434C68.3513 83.8183 68.2719 83.7855 68.2134 83.7269C68.1549 83.6684 68.122 83.5891 68.122 83.5063C68.122 83.4236 68.1549 83.3442 68.2134 83.2857C68.2719 83.2272 68.3513 83.1943 68.434 83.1943H93.0383C93.1211 83.1943 93.2004 83.2272 93.2589 83.2857C93.3175 83.3442 93.3503 83.4236 93.3503 83.5063C93.3503 83.5891 93.3175 83.6684 93.2589 83.7269C93.2004 83.7855 93.1211 83.8183 93.0383 83.8183Z" fill="white"/>
<path d="M65.3203 57.4999L65.3639 58.7451H64.559L64.5153 57.4999L63.0863 55.2646H63.9412L64.9271 56.8088L65.8007 55.2646H66.5932L65.3203 57.4999Z" fill="#407BFF"/>
<path d="M66.6244 56.9887C66.6138 56.7439 66.6555 56.4998 66.7469 56.2724C66.8383 56.045 66.9771 55.8396 67.1542 55.67C67.3313 55.5003 67.5426 55.3703 67.7741 55.2884C68.0055 55.2066 68.2517 55.175 68.4964 55.1955C68.7438 55.183 68.9913 55.2196 69.2244 55.3032C69.4575 55.3867 69.6717 55.5157 69.8546 55.6825C70.0374 55.8493 70.1852 56.0506 70.2895 56.2748C70.3938 56.4991 70.4524 56.7417 70.462 56.9887C70.4735 57.234 70.4324 57.4788 70.3415 57.707C70.2505 57.9351 70.1118 58.1413 69.9346 58.3116C69.7574 58.4819 69.5457 58.6126 69.3139 58.6947C69.082 58.7769 68.8352 58.8087 68.59 58.7881C68.3421 58.8006 68.0941 58.7638 67.8606 58.6799C67.6271 58.5959 67.4126 58.4664 67.2297 58.299C67.0468 58.1315 66.899 57.9294 66.7951 57.7045C66.6912 57.4796 66.6332 57.2362 66.6244 56.9887ZM69.6196 56.9887C69.6205 56.8413 69.5917 56.6953 69.535 56.5592C69.4783 56.4231 69.3949 56.2998 69.2896 56.1964C69.1843 56.0931 69.0593 56.0119 68.9219 55.9576C68.7846 55.9033 68.6378 55.8771 68.4902 55.8804C68.3455 55.8744 68.2011 55.8994 68.067 55.9538C67.9328 56.0082 67.8119 56.0908 67.7125 56.1959C67.6131 56.301 67.5375 56.4261 67.4908 56.5629C67.4441 56.6997 67.4274 56.8449 67.4418 56.9887C67.4401 57.1366 67.4683 57.2833 67.5246 57.4201C67.5809 57.5569 67.6642 57.681 67.7696 57.785C67.875 57.889 68.0003 57.9708 68.138 58.0254C68.2757 58.0801 68.4231 58.1065 68.5713 58.1032C68.716 58.1073 68.86 58.0808 68.9936 58.0253C69.1273 57.9698 69.2477 57.8866 69.3467 57.7813C69.4458 57.676 69.5214 57.5508 69.5684 57.4142C69.6155 57.2776 69.6329 57.1325 69.6196 56.9887Z" fill="#407BFF"/>
<path d="M71.0174 57.2008L70.955 55.252H71.7599L71.8223 57.1696C71.8223 57.8296 72.1468 58.1036 72.6335 58.1036C73.1203 58.1036 73.3948 57.8296 73.3761 57.1696L73.3075 55.252H74.0999L74.1686 57.2008C74.2014 57.4102 74.1854 57.6244 74.122 57.8268C74.0586 58.0291 73.9493 58.2142 73.8028 58.3677C73.6562 58.5211 73.4762 58.6389 73.2767 58.7119C73.0772 58.7849 72.8635 58.811 72.6523 58.7885C72.4365 58.8077 72.2191 58.7802 72.0149 58.7078C71.8108 58.6355 71.6247 58.52 71.4694 58.3692C71.3142 58.2184 71.1934 58.036 71.1154 57.8343C71.0374 57.6326 71.0039 57.4165 71.0174 57.2008Z" fill="#407BFF"/>
<path d="M77.2387 58.7324L76.5335 57.7611H75.791L75.8284 58.7324H75.0235L74.8987 55.252H76.4087C77.3385 55.252 77.9375 55.7376 77.9625 56.4972C77.9827 56.7286 77.9274 56.9603 77.8048 57.1578C77.6822 57.3553 77.499 57.508 77.2823 57.593L78.106 58.7137L77.2387 58.7324ZM76.3838 55.9119H75.7598L75.8035 57.1198H76.4275C76.9204 57.1198 77.1575 56.8957 77.1451 56.4972C77.1326 56.0987 76.8767 55.9119 76.3838 55.9119Z" fill="#407BFF"/>
<path d="M79.8095 56.9884C79.7966 56.7474 79.8351 56.5064 79.9225 56.2813C80.0098 56.0563 80.144 55.8523 80.3162 55.6828C80.4885 55.5133 80.6947 55.3822 80.9215 55.2982C81.1482 55.2141 81.3903 55.1791 81.6316 55.1953C81.9048 55.1868 82.1766 55.2382 82.4277 55.3458C82.6789 55.4533 82.9034 55.6145 83.0855 55.8179L82.5863 56.2911C82.4759 56.1631 82.3389 56.0606 82.1848 55.9907C82.0307 55.9208 81.8633 55.8852 81.694 55.8864C81.5478 55.8787 81.4017 55.9024 81.2654 55.9559C81.1292 56.0094 81.006 56.0915 80.9043 56.1965C80.8026 56.3016 80.7246 56.4272 80.6757 56.5649C80.6268 56.7025 80.608 56.8491 80.6207 56.9946C80.6198 57.1444 80.6493 57.2929 80.7074 57.431C80.7656 57.5691 80.8512 57.694 80.9591 57.7982C81.067 57.9024 81.1949 57.9836 81.3352 58.0371C81.4754 58.0905 81.6251 58.115 81.7751 58.1091C81.9409 58.1125 82.1051 58.0771 82.2546 58.0058C82.4042 57.9344 82.5349 57.8291 82.6362 57.6982L83.1667 58.1714C82.9969 58.3781 82.7808 58.5422 82.5359 58.6504C82.2909 58.7585 82.0239 58.8077 81.7564 58.794C81.5095 58.804 81.2631 58.7651 81.0313 58.6796C80.7996 58.5941 80.5871 58.4637 80.4061 58.2958C80.2251 58.128 80.0792 57.926 79.9768 57.7016C79.8744 57.4772 79.8176 57.2348 79.8095 56.9884Z" fill="#407BFF"/>
<path d="M83.3788 56.9893C83.3686 56.7473 83.4096 56.506 83.4992 56.2809C83.5887 56.0559 83.7247 55.8521 83.8983 55.683C84.072 55.5138 84.2794 55.383 84.507 55.2992C84.7347 55.2153 84.9775 55.1802 85.2196 55.1961C85.467 55.1836 85.7145 55.2202 85.9476 55.3037C86.1807 55.3873 86.3949 55.5163 86.5778 55.683C86.7606 55.8498 86.9084 56.0512 87.0127 56.2754C87.117 56.4996 87.1756 56.7423 87.1852 56.9893C87.1963 57.2317 87.1559 57.4738 87.0668 57.6996C86.9777 57.9254 86.8419 58.1299 86.6681 58.2997C86.4944 58.4696 86.2867 58.6009 86.0586 58.6852C85.8305 58.7694 85.5871 58.8047 85.3444 58.7887C85.0965 58.8012 84.8485 58.7644 84.615 58.6804C84.3815 58.5965 84.167 58.467 83.9841 58.2996C83.8012 58.1321 83.6535 57.93 83.5495 57.7051C83.4456 57.4801 83.3876 57.2368 83.3788 56.9893ZM86.3678 56.9893C86.3695 56.8422 86.3415 56.6963 86.2855 56.5603C86.2295 56.4242 86.1466 56.3008 86.0418 56.1974C85.937 56.0939 85.8124 56.0126 85.6754 55.9583C85.5385 55.9039 85.3919 55.8777 85.2446 55.881C85.0999 55.8749 84.9555 55.9 84.8214 55.9544C84.6872 56.0088 84.5664 56.0914 84.4669 56.1965C84.3675 56.3015 84.2919 56.4267 84.2452 56.5635C84.1985 56.7003 84.1818 56.8455 84.1962 56.9893C84.1937 57.1369 84.221 57.2835 84.2767 57.4202C84.3323 57.557 84.415 57.6812 84.5199 57.7853C84.6248 57.8894 84.7497 57.9712 84.8871 58.026C85.0245 58.0807 85.1715 58.1072 85.3194 58.1038C85.4644 58.1089 85.6089 58.0831 85.743 58.0279C85.8772 57.9728 85.998 57.8896 86.0973 57.7841C86.1966 57.6785 86.2721 57.553 86.3187 57.4159C86.3654 57.2788 86.3821 57.1333 86.3678 56.9893Z" fill="#407BFF"/>
<path d="M87.7343 55.2517H89.313C89.5589 55.2277 89.8072 55.2544 90.0423 55.3301C90.2775 55.4058 90.4945 55.5289 90.68 55.6918C90.8655 55.8547 91.0154 56.0539 91.1206 56.277C91.2257 56.5001 91.2837 56.7424 91.2911 56.9888C91.3049 57.2322 91.2649 57.4757 91.1739 57.702C91.0829 57.9283 90.9431 58.1318 90.7645 58.2982C90.5859 58.4645 90.3727 58.5896 90.1402 58.6646C89.9077 58.7396 89.6615 58.7627 89.4191 58.7322H87.8341L87.7343 55.2517ZM89.3754 58.0722C89.5226 58.0874 89.6713 58.07 89.811 58.0212C89.9506 57.9724 90.0778 57.8935 90.1833 57.79C90.2888 57.6865 90.3701 57.561 90.4214 57.4225C90.4727 57.284 90.4926 57.1359 90.4799 56.9888C90.4796 56.8389 90.4481 56.6906 90.3874 56.5534C90.3267 56.4162 90.2381 56.2931 90.1273 56.1919C90.0164 56.0906 89.8857 56.0135 89.7434 55.9652C89.6011 55.917 89.4503 55.8988 89.3006 55.9117H88.5642L88.6391 58.0722H89.3754Z" fill="#407BFF"/>
<path d="M94.6358 58.0727V58.6953H91.9401L91.8153 55.2148H94.4486V55.8375H92.6639V56.5908H94.2801V57.2135H92.6639V58.0166L94.6358 58.0727Z" fill="#407BFF"/>
<path d="M71.3731 71.6518V73.0464H64.8273V71.9444L68.3092 68.5885C69.1579 67.7604 69.3014 67.2436 69.2952 66.7206C69.2952 65.9112 68.7086 65.438 67.6166 65.438C67.2224 65.4181 66.829 65.4919 66.4689 65.6532C66.1088 65.8144 65.7921 66.0586 65.5449 66.3657L64.3718 65.4753C64.7751 64.9831 65.2897 64.5932 65.8733 64.3378C66.4568 64.0824 67.0928 63.9687 67.7289 64.0059C69.6633 64.0059 70.93 64.9835 70.955 66.5587C70.955 67.4179 70.7428 68.2087 69.5323 69.3667L67.1923 71.6269L71.3731 71.6518Z" fill="#263238"/>
<path d="M78.6239 70.3821C78.6239 71.8764 77.5382 73.1715 75.1483 73.1715C73.9445 73.1929 72.7648 72.8332 71.7787 72.1441L72.4713 70.8615C73.2232 71.4405 74.1486 71.7498 75.0983 71.7394C76.2777 71.7394 76.9703 71.2164 76.9703 70.3946C76.9703 69.5727 76.3463 69.0684 75.011 69.0684H74.1998V67.9414L76.1279 65.5443H72.0782V64.1621H78.1559V65.2704L76.0343 67.8356C77.7379 68.0348 78.6239 69.0435 78.6239 70.3821Z" fill="#263238"/>
<path d="M86.9481 70.5245C86.9481 72.1744 85.5566 73.2018 83.3414 73.2018C81.1262 73.2018 79.691 72.1744 79.666 70.5245C79.6473 70.0709 79.7706 69.6227 80.0189 69.2422C80.2671 68.8617 80.628 68.5678 81.0513 68.4013C80.7058 68.2266 80.4159 67.9593 80.2142 67.6294C80.0125 67.2994 79.907 66.9199 79.9094 66.5335C79.9094 65.008 81.2073 64.043 83.1791 64.043C85.151 64.043 86.53 64.9956 86.555 66.5335C86.5743 66.9177 86.4806 67.2993 86.2855 67.6311C86.0904 67.963 85.8023 68.2307 85.4567 68.4013C85.8906 68.5643 86.2651 68.8541 86.5312 69.2329C86.7973 69.6118 86.9426 70.0619 86.9481 70.5245ZM85.2758 70.4747C85.2758 69.5968 84.4895 69.0489 83.2665 69.0489C82.0435 69.0489 81.3134 69.5968 81.3321 70.4747C81.3508 71.3526 82.0934 71.9067 83.3164 71.9067C84.5395 71.9067 85.2945 71.3463 85.2758 70.4435V70.4747ZM81.5318 66.6144C81.5318 67.374 82.1558 67.8597 83.2353 67.8597C84.3148 67.8597 84.9326 67.374 84.9139 66.6144C84.8951 65.8548 84.2087 65.3692 83.1854 65.3692C82.162 65.3692 81.5318 65.7801 81.5442 66.5833L81.5318 66.6144Z" fill="#263238"/>
<path d="M95.2473 70.5245C95.2473 72.1744 93.8558 73.2018 91.6406 73.2018C89.4254 73.2018 87.984 72.1433 87.984 70.5245C87.9662 70.071 88.0899 69.6233 88.338 69.243C88.5861 68.8626 88.9465 68.5686 89.3692 68.4013C89.0235 68.2275 88.7337 67.9602 88.5329 67.6299C88.3321 67.2996 88.2284 66.9197 88.2335 66.5335C88.2023 65.008 89.5252 64.043 91.4971 64.043C93.4689 64.043 94.8479 64.9956 94.8729 66.5335C94.8922 66.9177 94.7986 67.2993 94.6035 67.6311C94.4083 67.963 94.1203 68.2307 93.7747 68.4013C94.2051 68.5673 94.5756 68.8584 94.8382 69.237C95.1008 69.6155 95.2433 70.0641 95.2473 70.5245ZM93.575 70.4747C93.575 69.5968 92.7888 69.0489 91.5657 69.0489C90.3427 69.0489 89.6126 69.5968 89.6313 70.4747C89.65 71.3526 90.3926 71.9067 91.6156 71.9067C92.8387 71.9067 93.6 71.3463 93.6 70.4435L93.575 70.4747ZM89.831 66.6144C89.831 67.374 90.4862 67.8597 91.5345 67.8597C92.5828 67.8597 93.2318 67.374 93.2193 66.6144C93.2068 65.8548 92.508 65.3692 91.4908 65.3692C90.4737 65.3692 89.856 65.7801 89.856 66.5833L89.831 66.6144Z" fill="#263238"/>
<path d="M48.9777 57.0197C48.8981 57.0199 48.8215 56.9897 48.7635 56.9353C48.7055 56.8809 48.6705 56.8064 48.6657 56.7271L47.5612 41.6783C47.5561 41.5967 47.5833 41.5163 47.637 41.4546C47.6907 41.3929 47.7666 41.3547 47.8483 41.3483C47.9307 41.3431 48.0119 41.37 48.0748 41.4235C48.1377 41.4769 48.1773 41.5527 48.1852 41.6347L49.2959 56.6835C49.2994 56.7244 49.2946 56.7656 49.282 56.8047C49.2694 56.8438 49.2492 56.88 49.2225 56.9112C49.1959 56.9425 49.1632 56.9681 49.1266 56.9868C49.0899 57.0054 49.0499 57.0166 49.0089 57.0197H48.9777Z" fill="#407BFF"/>
<path d="M47.6611 39.0819C47.5825 39.0821 47.5067 39.0528 47.4488 38.9997C47.391 38.9466 47.3554 38.8736 47.3491 38.7955L47.0558 34.8231C47.0529 34.7822 47.0581 34.7412 47.0712 34.7023C47.0842 34.6635 47.1048 34.6275 47.1317 34.5966C47.1861 34.5341 47.2632 34.4958 47.3459 34.49C47.4287 34.4842 47.5104 34.5115 47.573 34.5658C47.6356 34.6201 47.674 34.697 47.6798 34.7795L47.9731 38.7519C47.9782 38.8335 47.951 38.9138 47.8973 38.9756C47.8436 39.0373 47.7677 39.0755 47.686 39.0819H47.6611Z" fill="#407BFF"/>
<path d="M76.9828 20.1476C76.9001 20.1476 76.8207 20.1148 76.7622 20.0564C76.7037 19.9981 76.6708 19.9189 76.6708 19.8363V10.6775C76.6708 10.595 76.7037 10.5158 76.7622 10.4574C76.8207 10.399 76.9001 10.3662 76.9828 10.3662C77.0656 10.3662 77.1449 10.399 77.2035 10.4574C77.262 10.5158 77.2948 10.595 77.2948 10.6775V19.8363C77.2948 19.9189 77.262 19.9981 77.2035 20.0564C77.1449 20.1148 77.0656 20.1476 76.9828 20.1476Z" fill="#407BFF"/>
<path d="M69.7132 22.0901C69.6588 22.0898 69.6054 22.0752 69.5583 22.0479C69.5112 22.0206 69.4721 21.9815 69.4449 21.9344L64.8523 14.0022C64.8109 13.9304 64.7998 13.8451 64.8215 13.7651C64.8431 13.6851 64.8957 13.617 64.9677 13.5757C65.0397 13.5344 65.1252 13.5234 65.2053 13.545C65.2855 13.5666 65.3538 13.6191 65.3952 13.6909L69.9816 21.6231C70.0027 21.6581 70.0165 21.697 70.0223 21.7374C70.0281 21.7779 70.0256 21.819 70.0152 21.8585C70.0047 21.898 69.9864 21.935 69.9613 21.9673C69.9362 21.9996 69.9049 22.0265 69.8692 22.0465C69.8215 22.0733 69.768 22.0882 69.7132 22.0901Z" fill="#407BFF"/>
<path d="M84.2399 22.0901C84.1857 22.0904 84.1321 22.0775 84.0839 22.0527C84.0126 22.01 83.961 21.9411 83.94 21.8608C83.919 21.7805 83.9303 21.6952 83.9716 21.6231L88.558 13.6909C88.5994 13.6191 88.6676 13.5666 88.7478 13.545C88.828 13.5234 88.9134 13.5344 88.9854 13.5757C89.0574 13.617 89.11 13.6851 89.1317 13.7651C89.1533 13.8451 89.1422 13.9304 89.1009 14.0022L84.5207 21.9593C84.4894 22.0037 84.447 22.039 84.3977 22.062C84.3485 22.0849 84.2941 22.0946 84.2399 22.0901Z" fill="#407BFF"/>
<path d="M191.774 221.118C191.119 208.087 192.398 195.03 195.568 182.372L196.192 182.521C193.038 195.121 191.764 208.116 192.41 221.087L191.774 221.118Z" fill="#407BFF"/>
<path d="M192.953 181.912C192.953 183.07 194.027 187.186 195.193 187.154C196.36 187.123 197.203 182.97 197.172 181.806C197.165 181.53 197.103 181.257 196.991 181.005C196.878 180.752 196.717 180.524 196.516 180.334C196.316 180.143 196.079 179.994 195.821 179.895C195.562 179.795 195.286 179.748 195.009 179.755C194.732 179.762 194.46 179.823 194.206 179.935C193.953 180.047 193.724 180.208 193.534 180.408C193.343 180.609 193.193 180.845 193.094 181.103C192.994 181.361 192.946 181.636 192.953 181.912Z" fill="#407BFF"/>
<path d="M197.49 194.981C197.49 193.817 196.417 189.708 195.256 189.733C194.095 189.757 193.247 193.917 193.272 195.081C193.278 195.357 193.339 195.63 193.451 195.882C193.563 196.135 193.724 196.364 193.925 196.554C194.125 196.745 194.361 196.895 194.62 196.994C194.878 197.094 195.154 197.142 195.431 197.136C195.708 197.129 195.981 197.068 196.234 196.956C196.487 196.844 196.716 196.684 196.907 196.484C197.099 196.284 197.248 196.048 197.348 195.79C197.448 195.533 197.496 195.258 197.49 194.981Z" fill="#407BFF"/>
<path d="M188.673 190.691C189.84 190.691 193.958 189.62 193.927 188.456C193.896 187.292 189.74 186.451 188.573 186.482C188.296 186.489 188.023 186.55 187.77 186.662C187.516 186.773 187.287 186.934 187.096 187.134C186.905 187.334 186.755 187.57 186.655 187.827C186.555 188.085 186.507 188.36 186.514 188.637C186.52 188.913 186.581 189.185 186.693 189.438C186.805 189.691 186.966 189.919 187.167 190.11C187.367 190.301 187.603 190.45 187.862 190.55C188.12 190.65 188.396 190.698 188.673 190.691Z" fill="#407BFF"/>
<path d="M201.77 186.183C200.61 186.183 196.485 187.254 196.516 188.412C196.548 189.57 200.71 190.417 201.877 190.392C202.153 190.385 202.426 190.324 202.68 190.212C202.933 190.1 203.161 189.939 203.352 189.738C203.543 189.538 203.693 189.302 203.792 189.044C203.892 188.786 203.94 188.511 203.933 188.235C203.926 187.958 203.864 187.686 203.752 187.434C203.639 187.181 203.478 186.953 203.277 186.762C203.077 186.572 202.84 186.423 202.582 186.323C202.323 186.224 202.047 186.176 201.77 186.183Z" fill="#407BFF"/>
<path d="M188.985 185.423C189.833 186.226 193.484 188.399 194.289 187.553C195.094 186.706 192.741 183.194 191.899 182.379C191.494 181.993 190.953 181.784 190.393 181.796C189.834 181.809 189.302 182.043 188.916 182.447C188.53 182.851 188.32 183.391 188.333 183.949C188.345 184.507 188.58 185.038 188.985 185.423Z" fill="#407BFF"/>
<path d="M201.458 191.463C200.616 190.66 196.966 188.493 196.161 189.334C195.356 190.175 197.702 193.692 198.544 194.514C198.745 194.705 198.982 194.855 199.24 194.954C199.499 195.054 199.775 195.102 200.052 195.095C200.329 195.089 200.603 195.028 200.856 194.916C201.11 194.804 201.339 194.643 201.53 194.443C201.722 194.242 201.871 194.006 201.971 193.748C202.071 193.49 202.119 193.215 202.113 192.938C202.106 192.662 202.045 192.389 201.933 192.136C201.82 191.883 201.659 191.654 201.458 191.463Z" fill="#407BFF"/>
<path d="M192.192 194.67C192.997 193.823 195.169 190.181 194.326 189.378C193.484 188.575 189.958 190.922 189.134 191.762C188.748 192.167 188.538 192.708 188.552 193.267C188.565 193.826 188.801 194.356 189.206 194.742C189.612 195.127 190.154 195.336 190.714 195.323C191.274 195.309 191.806 195.075 192.192 194.67Z" fill="#407BFF"/>
<path d="M198.251 182.223C197.446 183.064 195.268 186.706 196.117 187.51C196.966 188.313 200.485 185.972 201.302 185.131C201.494 184.931 201.644 184.696 201.744 184.438C201.844 184.18 201.892 183.905 201.886 183.629C201.879 183.352 201.819 183.08 201.707 182.827C201.595 182.574 201.434 182.346 201.234 182.155C201.033 181.964 200.797 181.814 200.539 181.714C200.281 181.615 200.005 181.566 199.728 181.573C199.451 181.579 199.178 181.64 198.925 181.752C198.671 181.863 198.442 182.024 198.251 182.223Z" fill="#407BFF"/>
<path d="M192.722 188.506C192.735 188.998 192.893 189.475 193.177 189.877C193.462 190.28 193.859 190.589 194.319 190.766C194.779 190.943 195.282 190.98 195.763 190.873C196.245 190.765 196.683 190.518 197.024 190.161C197.364 189.805 197.591 189.356 197.676 188.871C197.761 188.386 197.7 187.887 197.501 187.437C197.302 186.987 196.973 186.605 196.557 186.341C196.141 186.077 195.656 185.942 195.162 185.953C194.834 185.96 194.51 186.032 194.21 186.164C193.909 186.297 193.638 186.487 193.411 186.724C193.185 186.961 193.007 187.24 192.889 187.546C192.771 187.852 192.714 188.178 192.722 188.506Z" fill="white"/>
<path d="M192.367 207.034C192.367 207.034 192.797 200.677 196.298 199.675C199.799 198.673 201.078 197.303 201.078 197.303C201.078 197.303 200.722 207.159 192.367 207.034Z" fill="#407BFF"/>
<path opacity="0.5" d="M192.367 207.034C192.367 207.034 192.797 200.677 196.298 199.675C199.799 198.673 201.078 197.303 201.078 197.303C201.078 197.303 200.722 207.159 192.367 207.034Z" fill="white"/>
<path d="M191.905 211.903C191.905 211.903 191.474 205.546 187.974 204.538C184.473 203.529 183.194 202.172 183.194 202.172C183.194 202.172 183.55 212.028 191.905 211.903Z" fill="#407BFF"/>
<path opacity="0.5" d="M191.905 211.903C191.905 211.903 191.474 205.546 187.974 204.538C184.473 203.529 183.194 202.172 183.194 202.172C183.194 202.172 183.55 212.028 191.905 211.903Z" fill="white"/>
<path d="M205.109 225.146C205.109 230.127 199.187 234.124 191.886 234.124C184.585 234.124 178.664 230.108 178.664 225.146C178.664 222.656 180.18 220.364 182.632 218.739C184.178 217.734 185.895 217.02 187.699 216.635H196.073C197.924 217.032 199.683 217.773 201.259 218.82C203.642 220.445 205.109 222.674 205.109 225.146Z" fill="#407BFF"/>
<path opacity="0.8" d="M196.073 216.635C197.924 217.032 199.683 217.773 201.259 218.82C203.642 220.445 205.109 222.674 205.109 225.146C205.109 230.127 199.187 234.124 191.886 234.124C184.585 234.124 178.664 230.108 178.664 225.146C178.664 222.656 180.18 220.364 182.632 218.739C184.178 217.734 185.895 217.02 187.699 216.635H196.073Z" fill="white"/>
<path d="M192.236 217.445H191.612V221.885H192.236V217.445Z" fill="#407BFF"/>
<path d="M201.839 216.499L201.14 218.678L201.128 218.703H182.639L182.601 218.585L181.933 216.499H201.839Z" fill="#407BFF"/>
<path d="M203.549 226.953C202.224 228.785 200.483 230.278 198.47 231.311C195.293 232.992 181.933 233.422 180.405 225.863C180.405 225.757 180.349 225.651 180.33 225.545C180.263 225.077 180.304 224.6 180.449 224.15C180.595 223.7 180.841 223.289 181.169 222.948C181.498 222.608 181.9 222.346 182.344 222.183C182.789 222.02 183.265 221.961 183.737 222.009C185.003 222.094 186.276 222.023 187.525 221.797C192.321 221.072 197.216 221.333 201.908 222.563C202.352 222.681 202.762 222.903 203.103 223.211C203.444 223.519 203.705 223.904 203.866 224.334C204.027 224.764 204.082 225.226 204.027 225.682C203.971 226.137 203.808 226.573 203.549 226.953Z" fill="#263238"/>
<path d="M107.646 224.438C107.763 224.392 107.866 224.318 107.947 224.222C108.028 224.127 108.083 224.012 108.108 223.89C108.132 223.816 108.135 223.737 108.117 223.661C108.1 223.585 108.062 223.516 108.008 223.46C107.528 222.962 105.575 223.317 105.356 223.36C105.331 223.363 105.307 223.373 105.288 223.39C105.268 223.406 105.255 223.429 105.25 223.454C105.245 223.478 105.247 223.503 105.256 223.526C105.265 223.55 105.28 223.57 105.3 223.585C105.689 223.868 106.108 224.11 106.548 224.307C106.887 224.477 107.276 224.524 107.646 224.438ZM107.821 223.634C107.844 223.66 107.86 223.692 107.866 223.726C107.873 223.76 107.87 223.795 107.858 223.827C107.844 223.909 107.809 223.986 107.757 224.05C107.704 224.114 107.636 224.164 107.559 224.195C107.203 224.326 106.523 224.083 105.687 223.572C106.498 223.435 107.565 223.367 107.821 223.634Z" fill="#407BFF"/>
<path d="M105.394 223.609C106.018 223.534 107.365 222.831 107.484 222.22C107.505 222.121 107.49 222.017 107.442 221.927C107.394 221.837 107.316 221.767 107.222 221.729C107.134 221.68 107.037 221.651 106.937 221.644C106.836 221.636 106.736 221.65 106.642 221.685C105.893 221.94 105.281 223.372 105.256 223.434C105.247 223.454 105.243 223.475 105.243 223.497C105.243 223.518 105.247 223.539 105.256 223.559C105.271 223.578 105.29 223.593 105.312 223.603L105.394 223.609ZM107.091 221.953C107.241 222.034 107.247 222.115 107.234 222.171C107.159 222.544 106.242 223.123 105.599 223.304C105.83 222.837 106.28 222.058 106.729 221.922C106.829 221.881 106.941 221.881 107.041 221.922L107.091 221.953Z" fill="#407BFF"/>
<path d="M99.4718 221.1L104.551 223.149L108.988 211.437L103.902 209.389L99.4718 221.1Z" fill="#FFB573"/>
<path d="M105.194 222.731L99.4906 220.434C99.3934 220.392 99.2841 220.386 99.1831 220.418C99.0821 220.45 98.9962 220.518 98.9414 220.608L96.4454 224.78C96.3865 224.887 96.3511 225.006 96.3418 225.128C96.3325 225.25 96.3493 225.372 96.3913 225.487C96.4332 225.602 96.4993 225.707 96.585 225.794C96.6707 225.882 96.7742 225.95 96.8885 225.994C98.8978 226.766 99.9024 227.034 102.411 228.049C103.958 228.671 106.155 229.736 108.276 230.601C110.398 231.467 111.396 229.437 110.579 228.889C106.954 226.442 106.835 225.029 105.93 223.385C105.769 223.088 105.508 222.857 105.194 222.731Z" fill="#263238"/>
<path d="M108.919 217.184L100.096 213.623L100.907 210.397L110.373 213.853L108.919 217.184Z" fill="#407BFF"/>
<path d="M117.755 81.6255C115.964 86.7995 110.666 98.978 106.579 93.9036C105.843 93.0073 105.242 92.0089 104.795 90.9399C103.066 86.675 102.636 79.7638 102.417 78.2509L101.026 73.5127C101.001 73.432 100.988 73.348 100.988 73.2637V70.5552C100.988 69.4594 101.874 68.8057 103.072 68.9053C103.072 68.9053 105.007 68.6811 105.007 69.833L105.381 73.8987C105.575 75.3121 105.013 77.2796 105.344 78.5746C106.592 83.4498 108.308 83.6739 109.387 88.7047C110.891 85.0748 113.58 78.7926 113.58 78.7926C115.365 79.0167 118.342 79.9257 117.755 81.6255Z" fill="#FFB573"/>
<path d="M111.353 95.7605C111.072 96.1974 110.689 96.5597 110.237 96.8164C109.785 97.0731 109.277 97.2164 108.758 97.2342C108.238 97.252 107.721 97.1436 107.253 96.9183C106.784 96.6931 106.378 96.3577 106.068 95.9411C105.328 94.9603 104.747 93.87 104.345 92.7097C102.723 87.3987 101.718 84.1112 101.581 78.5637C102.156 77.9839 102.882 77.5768 103.678 77.3886C104.473 77.2004 105.305 77.2386 106.08 77.499L108.738 86.4834C108.738 86.4834 114.148 73.0659 116.339 72.5865C118.916 72.0199 119.989 74.3174 121.081 77.1441C121.867 79.1738 114.878 90.3375 111.353 95.7605Z" fill="#407BFF"/>
<path d="M133.211 59.1553C132.587 62.2684 131.227 69.0674 133.411 71.147C133.411 71.147 132.556 74.3037 126.759 74.3037C120.376 74.3037 123.708 71.147 123.708 71.147C127.19 70.3189 127.096 67.7412 126.491 65.3192L133.211 59.1553Z" fill="#FFB573"/>
<path d="M123.458 51.8462C123.496 51.852 123.533 51.852 123.571 51.8462C123.628 51.8145 123.671 51.7619 123.691 51.6993C123.711 51.6367 123.706 51.5689 123.677 51.51C123.51 51.1523 123.259 50.8402 122.945 50.6006C122.631 50.3609 122.263 50.2008 121.873 50.134C121.841 50.1296 121.808 50.1319 121.776 50.1406C121.745 50.1493 121.715 50.1643 121.69 50.1846C121.664 50.205 121.643 50.2303 121.627 50.259C121.612 50.2878 121.602 50.3194 121.599 50.3519C121.595 50.3843 121.597 50.4172 121.605 50.4487C121.614 50.4803 121.629 50.5097 121.65 50.5353C121.67 50.5608 121.695 50.5821 121.724 50.5976C121.753 50.6132 121.785 50.6228 121.817 50.6258C122.124 50.6856 122.413 50.8172 122.659 51.0099C122.905 51.2026 123.102 51.4508 123.234 51.7341C123.258 51.771 123.291 51.8007 123.331 51.8204C123.37 51.8401 123.414 51.849 123.458 51.8462Z" fill="#263238"/>
<path d="M121.555 54.5371C121.061 55.4475 120.444 56.2856 119.721 57.0276C119.917 57.2068 120.149 57.3413 120.402 57.422C120.656 57.5026 120.923 57.5274 121.187 57.4946L121.555 54.5371Z" fill="#ED893E"/>
<path d="M122.054 53.6269C122.148 54.0378 121.998 54.4239 121.73 54.4799C121.462 54.5359 121.162 54.2495 121.075 53.8573C120.987 53.465 121.131 53.0603 121.405 52.9981C121.68 52.9358 121.967 53.2098 122.054 53.6269Z" fill="#263238"/>
<path d="M121.529 52.9791L120.469 52.9043C120.469 52.9043 121.149 53.5714 121.529 52.9791Z" fill="#263238"/>
<path opacity="0.2" d="M117.53 78.9742C118.635 77.9593 119.402 78.2644 119.889 79.0676C120.395 81.3962 117.393 86.2776 116.214 88.1268L117.53 78.9742Z" fill="black"/>
<path d="M143.083 82.0435C142.94 84.6087 142.696 87.8401 142.303 91.9058C141.891 96.1957 141.305 101.407 140.5 107.739C132.02 107.739 123.14 107.608 119.016 107.608C119.365 99.1968 119.49 90.673 115.708 73.9369C115.661 73.7294 115.656 73.5146 115.693 73.3051C115.731 73.0956 115.81 72.8957 115.926 72.7174C116.043 72.5391 116.194 72.3859 116.371 72.2671C116.548 72.1482 116.747 72.0661 116.956 72.0255C119.421 71.5796 121.912 71.2864 124.413 71.1476C127.643 70.917 130.886 70.917 134.116 71.1476C138.278 71.5274 143.008 72.4924 143.008 72.4924C143.008 72.4924 143.52 74.0365 143.083 82.0435Z" fill="#407BFF"/>
<path opacity="0.2" d="M143.083 82.0431C142.94 84.6083 142.696 87.8397 142.303 91.9055C140.019 89.2656 137.86 80.1753 138.559 77.0684C140.262 78.3247 141.758 79.837 142.996 81.5513C143.034 81.7135 143.063 81.8777 143.083 82.0431Z" fill="black"/>
<path d="M165.104 93.4378L169.472 90.9971L170.283 95.4364C170.283 95.4364 166.602 96.8497 164.667 95.8598L165.104 93.4378Z" fill="#FFB573"/>
<path d="M172.361 91.5014L172.667 92.9521C172.712 93.1746 172.69 93.4053 172.605 93.6156C172.519 93.8259 172.374 94.0066 172.187 94.1351L170.265 95.4301L169.453 90.9908L170.957 90.6173C171.108 90.5797 171.264 90.5729 171.418 90.5974C171.571 90.6219 171.717 90.6772 171.849 90.7598C171.98 90.8424 172.093 90.9508 172.181 91.0782C172.269 91.2057 172.33 91.3496 172.361 91.5014Z" fill="#FFB573"/>
<path d="M138.902 77.6353C140.294 80.462 145.398 91.14 147.638 93.6056L148.081 94.0663L148.3 94.2967C148.375 94.3714 148.437 94.4399 148.556 94.5457C148.958 94.9273 149.402 95.2635 149.879 95.5481C150.73 96.0386 151.645 96.4075 152.599 96.6439C154.271 97.031 155.988 97.1923 157.703 97.1234C160.9 96.9959 164.066 96.4602 167.126 95.5295L166.608 92.9393C165.167 93.0639 163.656 93.151 162.196 93.1759C160.749 93.2185 159.301 93.1727 157.859 93.039C156.523 92.9432 155.203 92.686 153.928 92.2731C153.413 92.1004 152.926 91.8551 152.481 91.5447C152.31 91.4252 152.153 91.2874 152.013 91.1337C151.963 91.0829 151.917 91.0288 151.875 90.9718L151.713 90.7788L151.382 90.3928C149.66 88.2385 145.111 77.8532 143.745 75.2568L138.902 77.6353Z" fill="#FFB573"/>
<path d="M165.035 97.8586C161.439 99.7657 157.232 100.173 153.335 98.9917C149.618 97.799 146.482 95.2629 144.543 91.8814C142.291 88.5753 136.294 79.2234 137.055 76.8077C137.948 73.9187 139.845 72.1255 143.015 72.9038C145.242 73.4393 149.492 84.2356 151.551 88.5503C152.356 89.752 153.903 91.6635 155.632 92.2487C158.683 93.301 160.93 92.8714 164.124 92.3919C164.711 92.7406 164.667 93.2823 164.961 93.8862C165.275 94.4989 165.446 95.1753 165.459 95.8638C165.472 96.5522 165.327 97.2345 165.035 97.8586Z" fill="#407BFF"/>
<path d="M136.356 54.1683C135.402 59.2863 135.108 61.4717 132.163 63.8003C127.745 67.2994 121.649 65.0082 121.056 59.7034C120.519 54.9279 122.173 47.3568 127.489 45.931C128.66 45.6104 129.893 45.5939 131.072 45.8829C132.251 46.172 133.337 46.757 134.225 47.5824C135.114 48.4078 135.776 49.4462 136.149 50.5989C136.522 51.7516 136.593 52.9803 136.356 54.1683Z" fill="#FFB573"/>
<path d="M154.565 82.5043C153.585 83.6188 153.279 84.2663 151.913 84.8702C150.546 85.4742 147.588 84.9449 146.646 83.7931C146.952 84.6897 148.737 86.2836 149.673 86.4268C148.616 87.0048 147.394 87.2063 146.207 86.9981C145.021 86.7898 143.941 86.1842 143.146 85.2812C143.276 85.8427 143.549 86.3614 143.938 86.7876C144.327 87.2139 144.819 87.5334 145.367 87.7156C133.411 88.0269 138.447 82.4109 130.959 74.4226C122.672 65.5813 124.469 58.2718 124.469 58.2718C124.489 56.4512 123.918 54.6732 122.841 53.2036C121.643 51.6719 121.992 49.6048 122.373 48.4467C122.928 46.747 124.619 46.1493 126.241 46.0497C126.528 44.3748 129.985 44.6799 130.403 44.9601C130.822 45.2402 130.871 45.1842 131.252 44.9601C132.095 44.4184 134.216 43.858 136.487 45.6885C137.873 46.8093 139.358 48.8017 139.408 53.0853C139.458 57.5246 137.33 62.7982 144.693 69.5412C149.03 73.5011 146.952 82.0373 154.565 82.5043Z" fill="#263238"/>
<path d="M123.483 54.5547C122.903 55.3756 122.662 56.3878 122.809 57.3814C123.022 58.6951 124.301 58.7823 125.231 57.9418C126.16 57.1012 126.972 55.582 126.285 54.4924C125.599 53.4028 124.207 53.5585 123.483 54.5547Z" fill="#FFB573"/>
<path d="M135.065 107.733C135.065 107.733 132.513 143.478 129.642 167.05C128.779 174.125 126.617 180.98 123.265 187.273L109.2 213.772L101.987 210.939C101.987 210.939 106.979 185.754 116.707 172.019C116.707 172.019 109.431 130.969 118.953 107.608L135.065 107.733Z" fill="#263238"/>
<path opacity="0.2" d="M125.255 116.394C125.255 116.394 127.402 132.582 128.575 142.214C124.176 136.423 120.763 128.342 125.255 116.394Z" fill="black"/>
<path d="M153.279 227.793C153.363 227.7 153.421 227.587 153.447 227.464C153.474 227.342 153.467 227.215 153.429 227.096C153.415 227.019 153.38 226.948 153.328 226.89C153.276 226.832 153.21 226.789 153.136 226.766C152.468 226.542 150.914 227.756 150.74 227.893C150.72 227.909 150.706 227.931 150.698 227.955C150.691 227.979 150.69 228.005 150.696 228.03C150.704 228.053 150.718 228.073 150.737 228.088C150.755 228.104 150.778 228.114 150.802 228.117C151.287 228.191 151.779 228.209 152.268 228.173C152.639 228.167 152.997 228.033 153.279 227.793ZM153.048 227.009C153.082 227.018 153.111 227.038 153.134 227.064C153.156 227.091 153.17 227.124 153.173 227.158C153.201 227.236 153.207 227.319 153.192 227.4C153.176 227.481 153.14 227.557 153.086 227.619C152.836 227.899 152.125 227.999 151.151 227.899C151.788 227.426 152.699 226.884 153.048 227.009Z" fill="#407BFF"/>
<path d="M150.896 228.098C151.389 227.756 152.268 226.504 152.081 225.913C152.052 225.814 151.989 225.729 151.904 225.671C151.818 225.614 151.716 225.587 151.613 225.595C151.514 225.593 151.415 225.611 151.324 225.65C151.232 225.688 151.15 225.746 151.083 225.819C150.54 226.392 150.683 227.936 150.69 228.005C150.693 228.027 150.702 228.048 150.715 228.066C150.728 228.085 150.745 228.1 150.765 228.111C150.787 228.117 150.811 228.117 150.833 228.111C150.855 228.113 150.877 228.109 150.896 228.098ZM151.607 225.851C151.775 225.851 151.819 225.925 151.838 225.981C151.944 226.349 151.414 227.276 150.933 227.731C150.861 227.131 150.978 226.523 151.27 225.994C151.341 225.915 151.439 225.866 151.545 225.857L151.607 225.851Z" fill="#407BFF"/>
<path d="M144.468 228.603L149.935 228.08L148.262 215.689L142.796 216.219L144.468 228.603Z" fill="#FFB573"/>
<path d="M150.303 227.427L144.163 228.018C144.057 228.026 143.958 228.072 143.884 228.148C143.811 228.223 143.768 228.324 143.763 228.429L143.539 233.267C143.539 233.39 143.565 233.511 143.615 233.623C143.666 233.735 143.739 233.835 143.831 233.917C143.923 233.999 144.031 234.06 144.149 234.097C144.266 234.134 144.39 234.146 144.512 234.132C146.646 233.896 147.632 233.672 150.365 233.41C152.025 233.248 154.471 233.186 156.767 232.968C159.064 232.75 158.958 230.509 158.015 230.397C153.647 229.905 152.843 228.722 151.283 227.669C150.994 227.477 150.648 227.391 150.303 227.427Z" fill="#263238"/>
<path d="M140.469 107.726C140.469 107.726 147.464 150.382 148.805 175.648L149.061 220.913L143.401 222.015C143.401 222.015 135.208 193.138 134.26 176.445C131.764 132.164 117.306 132.09 126.004 107.646L140.469 107.726Z" fill="#263238"/>
<path d="M150.939 221.099L141.573 222.376L140.618 218.79L150.634 217.488L150.939 221.099Z" fill="#407BFF"/>
<path d="M100.464 61.9639H100.82C100.735 61.9638 100.651 61.9808 100.573 62.0141C100.496 62.0473 100.425 62.0959 100.367 62.1571C100.309 62.2183 100.263 62.2906 100.234 62.3698C100.204 62.449 100.191 62.5333 100.196 62.6176L100.77 73.4575C100.787 73.6276 100.866 73.7854 100.993 73.9004C101.12 74.0154 101.285 74.0794 101.456 74.0801H101.088C100.917 74.0781 100.753 74.0136 100.626 73.8988C100.5 73.7841 100.42 73.6271 100.402 73.4575L99.84 62.6176C99.8358 62.5333 99.8488 62.449 99.8782 62.3698C99.9077 62.2906 99.953 62.2183 100.011 62.1571C100.07 62.0959 100.14 62.0473 100.218 62.0141C100.296 61.9808 100.379 61.9638 100.464 61.9639Z" fill="#407BFF"/>
<path opacity="0.1" d="M100.464 61.9639H100.82C100.735 61.9638 100.651 61.9808 100.573 62.0141C100.496 62.0473 100.425 62.0959 100.367 62.1571C100.309 62.2183 100.263 62.2906 100.234 62.3698C100.204 62.449 100.191 62.5333 100.196 62.6176L100.77 73.4575C100.787 73.6276 100.866 73.7854 100.993 73.9004C101.12 74.0154 101.285 74.0794 101.456 74.0801H101.088C100.917 74.0781 100.753 74.0136 100.626 73.8988C100.5 73.7841 100.42 73.6271 100.402 73.4575L99.84 62.6176C99.8358 62.5333 99.8488 62.449 99.8782 62.3698C99.9077 62.2906 99.953 62.2183 100.011 62.1571C100.07 62.0959 100.14 62.0473 100.218 62.0141C100.296 61.9808 100.379 61.9638 100.464 61.9639Z" fill="white"/>
<path d="M101.182 74.1123H105.55C105.715 74.1123 105.874 74.0467 105.991 73.93C106.108 73.8132 106.174 73.6548 106.174 73.4897L105.606 62.6499C105.595 62.4747 105.518 62.3101 105.391 62.1889C105.264 62.0677 105.095 61.9989 104.919 61.9961H100.551C100.467 61.996 100.383 62.0131 100.305 62.0463C100.227 62.0795 100.157 62.1282 100.099 62.1893C100.04 62.2505 99.9951 62.3228 99.9656 62.402C99.9361 62.4812 99.9231 62.5655 99.9274 62.6499L100.495 73.4897C100.514 73.6593 100.593 73.8163 100.72 73.931C100.846 74.0458 101.011 74.1103 101.182 74.1123Z" fill="#407BFF"/>
<path opacity="0.4" d="M101.182 74.1123H105.55C105.715 74.1123 105.874 74.0467 105.991 73.93C106.108 73.8132 106.174 73.6548 106.174 73.4897L105.606 62.6499C105.595 62.4747 105.518 62.3101 105.391 62.1889C105.264 62.0677 105.095 61.9989 104.919 61.9961H100.551C100.467 61.996 100.383 62.0131 100.305 62.0463C100.227 62.0795 100.157 62.1282 100.099 62.1893C100.04 62.2505 99.9951 62.3228 99.9656 62.402C99.9361 62.4812 99.9231 62.5655 99.9274 62.6499L100.495 73.4897C100.514 73.6593 100.593 73.8163 100.72 73.931C100.846 74.0458 101.011 74.1103 101.182 74.1123Z" fill="white"/>
<path d="M105.911 73.2326C105.915 73.287 105.907 73.3415 105.889 73.3929C105.871 73.4442 105.842 73.4914 105.805 73.5315C105.727 73.6077 105.622 73.6502 105.512 73.6498H101.263C101.144 73.6484 101.03 73.6019 100.944 73.5198C100.859 73.4377 100.807 73.3261 100.801 73.2077L100.246 62.6916C100.242 62.6381 100.249 62.5844 100.267 62.534C100.285 62.4835 100.314 62.4375 100.352 62.399C100.389 62.3589 100.435 62.3272 100.485 62.3057C100.536 62.2843 100.59 62.2736 100.645 62.2745H104.894C105.013 62.2759 105.127 62.3223 105.213 62.4044C105.299 62.4865 105.35 62.5981 105.356 62.7165L105.394 63.4699L105.911 73.2326Z" fill="#263238"/>
<g opacity="0.1">
<path d="M105.394 63.4716L103.983 73.639H102.292L103.89 62.2637H104.894C105.013 62.2651 105.127 62.3116 105.213 62.3937C105.299 62.4758 105.35 62.5873 105.356 62.7057L105.394 63.4716Z" fill="white"/>
<path d="M101.681 73.6517H101.3L102.898 62.2764H103.278L101.681 73.6517Z" fill="white"/>
</g>
<path d="M117.636 108.941C114.459 115.189 112.752 122.077 112.644 129.082C123.252 137.295 133.13 127.675 145.273 129.3C144.849 123.828 142.983 113.735 140.774 108.679C132.731 109.022 125.218 108.218 117.636 108.941Z" fill="#407BFF"/>
<path d="M118.741 106.718C118.741 106.718 117.886 108.916 118.117 108.916H140.4C140.593 108.916 140.749 108.823 140.762 108.698L140.955 106.83C140.955 106.7 140.799 106.588 140.593 106.588H119.09C119.026 106.579 118.96 106.586 118.899 106.609C118.838 106.632 118.784 106.669 118.741 106.718Z" fill="white"/>
<path d="M121.88 109.127H121.306C121.187 109.127 121.1 109.065 121.106 108.99L121.38 106.5C121.38 106.425 121.487 106.369 121.599 106.369H122.179C122.292 106.369 122.379 106.425 122.373 106.5L122.104 108.99C122.087 109.034 122.056 109.072 122.015 109.096C121.974 109.121 121.927 109.132 121.88 109.127Z" fill="#407BFF"/>
<path d="M135.832 109.127H135.258C135.146 109.127 135.059 109.065 135.065 108.99L135.333 106.5C135.333 106.425 135.439 106.369 135.558 106.369H136.132C136.244 106.369 136.332 106.425 136.325 106.5L136.057 108.99C136.032 109.04 135.951 109.127 135.832 109.127Z" fill="#407BFF"/>
</svg>
